<svg class="animated" id="freepik_stories-waist-bag" xmlns="http://www.w3.org/2000/svg" viewBox="0 0 500 500" version="1.1" xmlns:xlink="http://www.w3.org/1999/xlink" xmlns:svgjs="http://svgjs.com/svgjs"><style>svg#freepik_stories-waist-bag:not(.animated) .animable {opacity: 0;}svg#freepik_stories-waist-bag.animated #freepik--Floor--inject-163 {animation: 1.6s 1 forwards cubic-bezier(.36,-0.01,.5,1.38) zoomIn;animation-delay: 0s;}svg#freepik_stories-waist-bag.animated #freepik--Cloud--inject-163 {animation: 1.6s 1 forwards cubic-bezier(.36,-0.01,.5,1.38) zoomIn;animation-delay: 0.2s;opacity: 0}svg#freepik_stories-waist-bag.animated #freepik--cloud--inject-163 {animation: 1.6s 1 forwards cubic-bezier(.36,-0.01,.5,1.38) zoomIn;animation-delay: 0.4s;opacity: 0}svg#freepik_stories-waist-bag.animated #freepik--cloud--inject-163 {animation: 1.6s 1 forwards cubic-bezier(.36,-0.01,.5,1.38) zoomIn;animation-delay: 0.8s;opacity: 0}svg#freepik_stories-waist-bag.animated #freepik--cloud--inject-163 {animation: 1.6s 1 forwards cubic-bezier(.36,-0.01,.5,1.38) zoomIn;animation-delay: 1.2000000000000002s;opacity: 0}svg#freepik_stories-waist-bag.animated #freepik--Clouds--inject-163 {animation: 1.6s 1 forwards cubic-bezier(.36,-0.01,.5,1.38) zoomIn,3s Infinite  linear floating;animation-delay: 0.2s,2.3s;opacity: 0}svg#freepik_stories-waist-bag.animated #freepik--Shadows--inject-163 {animation: 1.6s 1 forwards cubic-bezier(.36,-0.01,.5,1.38) zoomIn;animation-delay: 0s;}svg#freepik_stories-waist-bag.animated #freepik--Bench--inject-163 {animation: 1.6s 1 forwards cubic-bezier(.36,-0.01,.5,1.38) zoomIn;animation-delay: 0s;}svg#freepik_stories-waist-bag.animated #freepik--character-2--inject-163 {animation: 1.6s 1 forwards cubic-bezier(.36,-0.01,.5,1.38) zoomIn,6s Infinite  linear heartbeat;animation-delay: 0s,4.6s;}svg#freepik_stories-waist-bag.animated #freepik--character-1--inject-163 {animation: 1.6s 1 forwards cubic-bezier(.36,-0.01,.5,1.38) zoomIn;animation-delay: 0s;}svg#freepik_stories-waist-bag.animated #freepik--speech-bubble--inject-163 {animation: 1.6s 1 forwards cubic-bezier(.36,-0.01,.5,1.38) zoomIn;animation-delay: 0s;}            @keyframes zoomIn {                0% {                    opacity: 0;                    transform: scale(0.5);                }                100% {                    opacity: 1;                    transform: scale(1);                }            }                    @keyframes floating {                0% {                    opacity: 1;                    transform: translateY(0px);                }                50% {                    transform: translateY(-10px);                }                100% {                    opacity: 1;                    transform: translateY(0px);                }            }                    @keyframes heartbeat {                0% {                    transform: scale(1);                }                10% {                    transform: scale(1.1);                }                30% {                    transform: scale(1);                }                40% {                    transform: scale(1);                }                50% {                    transform: scale(1.1);                }                60% {                    transform: scale(1);                }                100% {                    transform: scale(1);                }            }        </style><g id="freepik--Floor--inject-163" class="animable" style="transform-origin: 250.477px 336.538px;"><g id="freepik--floor--inject-163" class="animable" style="transform-origin: 250.477px 336.538px;"><g id="freepik--Shrubbery--inject-163" class="animable" style="transform-origin: 250.477px 261.284px;"><path d="M10.46,327.88a3.73,3.73,0,0,0-.43.3.88.88,0,0,1,.17-.12Z" style="fill: rgb(65, 217, 189); transform-origin: 10.245px 328.03px;" id="el6fqw4fmjkvn" class="animable"></path><path d="M493.8,314.92a9,9,0,0,1-2.87,4l-.38.29a8.7,8.7,0,0,1-.89.53l-.34.17-.54.24c4.19,3.74,4.17,11.31-.95,13.51H12.77c-2.5-1.56-3.16-3.63-1.95-6a11.57,11.57,0,0,1-1.34-.3l-.64-.2a6.56,6.56,0,0,1-1.5-.75l-.07-.05L7,326.2l-.25-.2-.08-.07-.28-.27-.09-.1a4.8,4.8,0,0,1-.55-.75l-.12-.21c-.06-.11-.11-.22-.16-.33l0,0a4.44,4.44,0,0,1-.22-.61,1.82,1.82,0,0,1-.07-.25A6.94,6.94,0,0,1,5,322.09c0-.12,0-.24,0-.37s0-.39,0-.58H5a6.3,6.3,0,0,1,0-.75,5,5,0,0,1,.08-.54,2.7,2.7,0,0,1,.08-.39,5.12,5.12,0,0,1,.15-.56c.07-.23.15-.46.24-.68h0c.09-.21.19-.42.3-.62A3.57,3.57,0,0,1,6.2,317a2.73,2.73,0,0,1,.21-.3c.13-.19.28-.38.43-.56s.3-.32.46-.47.23-.21.35-.31l.27-.21,1.36-.83.4-.17.42-.16c.21-.08.42-.14.64-.2a3.88,3.88,0,0,1-.45-.24A6.87,6.87,0,0,1,9,312.72l-.39-.35a7.24,7.24,0,0,1-1.44-1.88,6.53,6.53,0,0,1-.39-.85c-.05-.14-.1-.27-.14-.4s-.12-.39-.17-.59,0-.24-.07-.36a.64.64,0,0,0,0-.07l-.06-.43c0-.14,0-.28,0-.42s0-.36,0-.54a6.45,6.45,0,0,1,0-.76.25.25,0,0,1,0-.08,5.93,5.93,0,0,1,.1-.72s0,0,0-.07c0-.19.08-.39.13-.58l.06-.21a0,0,0,0,0,0,0s0-.05,0-.07c.07-.23.15-.45.24-.68s.2-.47.31-.69.19-.35.28-.51a7.81,7.81,0,0,1,.5-.73c.11-.14.21-.27.33-.4a3.59,3.59,0,0,1,.39-.39,4.17,4.17,0,0,1,.38-.34l.07-.05a4.91,4.91,0,0,1,.44-.31A2.65,2.65,0,0,1,10,300l.51-.26.32-.13a1.75,1.75,0,0,1,.32-.12l1.44-.36a3.89,3.89,0,0,1-.22-.79,4.19,4.19,0,0,1,0-1.58c0-.13.06-.26.1-.39a3,3,0,0,1,.13-.39,1.73,1.73,0,0,1,.16-.37c0-.1.1-.2.16-.3a2.39,2.39,0,0,1,.21-.34,2.94,2.94,0,0,1,.31-.41.7.7,0,0,1,.14-.16,1.93,1.93,0,0,1,.27-.3l.16-.16a5.49,5.49,0,0,1,.52-.44,5,5,0,0,1,.47-.33,5.3,5.3,0,0,1,.57-.33,5.38,5.38,0,0,1,.6-.28,6.79,6.79,0,0,1,.67-.24l.38-.12.29-.07.72-.15a7.54,7.54,0,0,1,.94-.06h.06a6.06,6.06,0,0,1,1.72.24h0l0,0a6.37,6.37,0,0,1,1.54.67h0a2.61,2.61,0,0,1,.28.17,2.26,2.26,0,0,1,.26.16l-.34-.28-.11-.09a3.65,3.65,0,0,1-.3-.27.93.93,0,0,1-.14-.14l-.26-.26-.17-.18-.11-.13a3.88,3.88,0,0,1-.26-.31l0,0a2.35,2.35,0,0,1-.19-.25l-.18-.25-.16-.24c-.06-.09-.12-.18-.17-.27l0,0-.15-.27c-.06-.12-.12-.23-.17-.35a.54.54,0,0,1,0-.11c0-.09-.07-.19-.11-.28l-.09-.26a2.68,2.68,0,0,0-.07-.27v0a2.21,2.21,0,0,1,0-.25,2.35,2.35,0,0,1-.05-.37c0-.06,0-.12,0-.17s0-.16,0-.24a1,1,0,0,0,0-.17.58.58,0,0,1,0-.19,1.36,1.36,0,0,1,.06-.29.84.84,0,0,1,.05-.17.51.51,0,0,1,.07-.17,2.07,2.07,0,0,1,.15-.34,2.1,2.1,0,0,1,.22-.33l.11-.15a3.57,3.57,0,0,1,.42-.46c-2.54.12-5.33-.29-7-2.15-.12-.13-.23-.27-.34-.41a5.5,5.5,0,0,1-.58-.94,4.47,4.47,0,0,1-.46-2,4.07,4.07,0,0,1,0-.5,3.43,3.43,0,0,1,.08-.48,5.61,5.61,0,0,1,.41-1.2,2.36,2.36,0,0,1-.46-.17,2.91,2.91,0,0,1-.42-.23l-.23-.16a4,4,0,0,1-.67-.58,6.07,6.07,0,0,1-.8-1l0,0c-.12-.18-.23-.38-.34-.58s-.19-.39-.28-.6l0-.05a6.31,6.31,0,0,1-.42-1.85,10.94,10.94,0,0,1,0-1.81,9.38,9.38,0,0,1,.31-1.92,5.58,5.58,0,0,1,.18-.58c.06-.17.12-.34.19-.51l0-.08q.11-.25.24-.51c.08-.16.17-.32.26-.47l0-.07c.08-.14.18-.28.27-.41l.08-.1a4.94,4.94,0,0,1,.36-.44,3,3,0,0,1,.3-.32,3.07,3.07,0,0,1,.26-.25c.11-.1.22-.2.34-.29l0,0,.4-.28.12-.08c.15-.1.31-.19.47-.28l.84-.41c-.31-.27-.6-.55-.88-.84l-.39-.43-.33-.39c-.13-.17-.26-.33-.37-.5a7.33,7.33,0,0,1-.58-.95,4.44,4.44,0,0,1-.24-.49l-.15-.36a6.19,6.19,0,0,1-.32-1.06c-.06-.26-.1-.53-.14-.8s0-.27,0-.41,0-.32,0-.48a9.07,9.07,0,0,1,.11-1.44,7.09,7.09,0,0,1,.28-1.19c0-.16.1-.31.16-.46s.17-.43.27-.65l0-.06.19-.39a11.47,11.47,0,0,1,.91-1.43l.34-.44.36-.42a10.33,10.33,0,0,1,.74-.74l0-.05,1-.77a7.47,7.47,0,0,1,1.26-.75,5,5,0,0,1,.48-.21l.37-.14q.3-.1.6-.18a5.58,5.58,0,0,1-1.09-1.6c0-.11-.09-.22-.13-.34a3.62,3.62,0,0,1-.13-.35l0-.12a3.17,3.17,0,0,1-.12-.44,2.88,2.88,0,0,1-.09-.4s0,0,0,0c0-.19-.07-.37-.09-.55,0,0,0-.06,0-.08a4.93,4.93,0,0,1-.05-.54c0-.21,0-.41,0-.61s0-.58,0-.87v0c0-.23,0-.45.07-.67l0-.21a.5.5,0,0,1,0-.12,13.08,13.08,0,0,1,.3-1.49v0q.09-.37.21-.72c.07-.21.14-.42.21-.61a8.51,8.51,0,0,1,.55-1.16c2.22-3.73,5.53-6.09,9.85-5.72h0a8.16,8.16,0,0,1-.6-1.59c0-.13-.07-.25-.1-.38l-.09-.44,0-.19a7.3,7.3,0,0,1-.1-.94c0-.23,0-.45,0-.67s0-.4,0-.6,0-.34,0-.52,0-.2,0-.3a9.43,9.43,0,0,1,.36-1.64,9.17,9.17,0,0,1,1.93-3.47,5.9,5.9,0,0,1,.49-.51h0c.2-.19.41-.37.62-.55s.44-.36.67-.52l.05,0,0,0a11.89,11.89,0,0,1,9-2.32c-.82-5.54,4-9.48,6.07-10.68,2.62-1.49,7.51-3.45,12.83-.18,1-3.47,4-6.37,12.78-6.35s10.85,6.34,10.85,6.5c2.7-.89,6.18-1.93,8.73-.07,2.33,1.71,2.63,5,2.71,7.91a6,6,0,0,1,10.78,1.2,6.76,6.76,0,0,1,10-6.83A7.25,7.25,0,0,1,126,200.31c-.07-.05,0-.27,0-.32a1.93,1.93,0,0,0,.13-.47,5.76,5.76,0,0,1,.33-1.07,6,6,0,0,1,1.12-2,5.19,5.19,0,0,1,2.84-1.51,9.58,9.58,0,0,1,1.85-.17l.92,0,.46,0a12.08,12.08,0,0,1,1.29.29,6.48,6.48,0,0,1,11.5-.93,23.72,23.72,0,0,1,2.25-2.55,8.73,8.73,0,0,1,9.94-.83l.33.21a9.73,9.73,0,0,1,3.55,4.2,10.62,10.62,0,0,1,.81,2.68,7.5,7.5,0,0,1,.13,1.42,1.48,1.48,0,0,1-.13.5c-.11.27-.15.89-.37,1a12,12,0,0,1,6.59-2.1c2.34.12,4.74,1.76,5,4.09.31-1.61.95-3.33,2.38-4.12a4.52,4.52,0,0,1,3.69-.1,12.8,12.8,0,0,1,3.24,2,10.57,10.57,0,0,1,1.18-4.68,5.07,5.07,0,0,1,3.23-2.26,8.89,8.89,0,0,1,1.42-.42,8,8,0,0,1,3.11.31,6.38,6.38,0,0,1,2.07,1,4.66,4.66,0,0,1,.84.76,3.48,3.48,0,0,1,.54.72,6.47,6.47,0,0,1,6.89-2.51c3.52,1.07,4.44,4.05,3.63,7.26.08-.32.78-.77,1-1a5.64,5.64,0,0,1,1.33-.7,5.37,5.37,0,0,1,3.05-.13c.47.11.82.36,1.28.21a5.12,5.12,0,0,1,.56-.15,6.25,6.25,0,0,1,2.2-.05,7,7,0,0,1,3.91,2,6,6,0,0,1,1.59,2.82,5.83,5.83,0,0,1,5.84-4.43,7.58,7.58,0,0,1,6.3,4.25,3.09,3.09,0,0,1,5.44-1.84,13.09,13.09,0,0,1,4.08-10.78A12.46,12.46,0,0,1,254.52,188a11.91,11.91,0,0,1,8.42,7.74c.33-1.58,1.75-2.66,3.13-3.48a6,6,0,0,1,3.56-1.1c2.33.25,3.67,2.76,4.34,5a3.47,3.47,0,0,1,3.58-2.3,5,5,0,0,1,3.7,2.47,10,10,0,0,1,11.84-7.16,5.15,5.15,0,0,1,2.47,1.79,8.78,8.78,0,0,1,1.43,3.85,3.19,3.19,0,0,1,4.28-2c1.41.44,1.8,1.27,2.29,2.62.86-2.14,3.85-3.59,5.94-3.38,1.59.15,2.63,1.82,3.08,3.3s-.05,2.64-.21,4a4.92,4.92,0,0,1,6.08-1c2.09-7.61,13.15-6.8,14.88-.62a4.53,4.53,0,0,1,6.56.75c.89-3.77,6.71-2.52,8.61-.24-2.52-4-3.14-8.9,1.47-11.67,3.32-2,7.38-2.26,9.45,1.49-.62-7.19,8.69-8.48,11.3-2.35,5.6-5.3,16.14,2.46,10.94,9.13,5.5-.35,9.67,8.51,3.72,10.93a3.47,3.47,0,0,1,2.9,4.52,6.46,6.46,0,0,1,8.81-1.92,4.47,4.47,0,0,1,3.33-8c-2.52-11.73,16.28-17,21.76-8,3.1-7.66,17.41-1.9,14.35,5.32a6.6,6.6,0,0,1,3.62-.19l.35.08.35.09a8.8,8.8,0,0,1,1.45.55,4.8,4.8,0,0,1,.6.3l0,0a8.18,8.18,0,0,1,.92.57,9.52,9.52,0,0,1,.88.69l.28.24a10.73,10.73,0,0,1,1.23,1.4,2.51,2.51,0,0,1,.2.29c.07.09.13.2.2.31a8.41,8.41,0,0,1,.6,1.29,2,2,0,0,1,.09.26c0,.08.05.15.07.23l.09.39a6.21,6.21,0,0,1-.94,4.66c6.09-.08,8.82,8.74,3.72,12.6,3.75.92,5,7.77.59,11.19,2.53,0,6.48,4.89,6.36,7.51,2.17-4.78,11.8-4.39,12.06,2.41,6-2.31,12,2.16,9.82,8.61,6.76,1.33,7.8,8.54,5.69,13.8,8.62.8,10.41,13.62,4.47,19.58.23.07.45.15.67.24l.41.17.3.15.4.2a8,8,0,0,1,1.63,1.16,4.27,4.27,0,0,1,.38.36,5.76,5.76,0,0,1,.41.44,10.65,10.65,0,0,1,1,1.47,10.25,10.25,0,0,1,.76,1.65,11.29,11.29,0,0,1,.35,1.17c1.16,4.63-.47,10.18-4.47,13C494.05,306.1,495.25,310.9,493.8,314.92Z" style="fill: rgb(230, 230, 230); transform-origin: 250.447px 257.729px;" id="el3mc69bhllf2" class="animable"></path><g id="elnxzcpgkevns"><g style="opacity: 0.1; transform-origin: 250.477px 269.21px;" class="animable"><path d="M427.82,213a6.84,6.84,0,0,0-11,1,6.89,6.89,0,0,0-11.17,3.95,8.21,8.21,0,0,1,13.65,1.63,5.9,5.9,0,0,0,0-1.18,7,7,0,0,0-.93-2.66,7.11,7.11,0,0,1,.71-.75,8.2,8.2,0,0,1,9.49-1A5.66,5.66,0,0,0,427.82,213Z" id="elflanu2kot8f" class="animable" style="transform-origin: 417.11px 215.129px;"></path><path d="M356.06,201.08a5.31,5.31,0,0,1,7.51-.44,5,5,0,0,1,1,1.18,5.32,5.32,0,0,1,8.62,3.05,6.34,6.34,0,0,0-10.53,1.26,4.64,4.64,0,0,1,0-.91,5.33,5.33,0,0,1,.72-2.06,5.9,5.9,0,0,0-.55-.57,6.3,6.3,0,0,0-7.32-.77A4.65,4.65,0,0,1,356.06,201.08Z" id="el9xr3fsuj3rj" class="animable" style="transform-origin: 364.35px 202.711px;"></path><path d="M437.45,239.74c2.25-1,5.92-1.21,8,2.34a5.74,5.74,0,0,1,.33,4.59,11.35,11.35,0,0,1-.78,1.56,1.32,1.32,0,0,0-.18.44c0,.63.92.72,1.38,1a7,7,0,0,1,3,2.81,7.09,7.09,0,0,1,.2,6.52A8.34,8.34,0,0,1,463,266.64c2.62-2.9,7.33-3.15,10.8-1.36a7.85,7.85,0,0,1,3.5,3.29,6.05,6.05,0,0,1-4.09,8.26,10.55,10.55,0,0,1,8.21,5.63c1.47,3.13.75,7.3-2,9.39-2.93,2.24-7.08,1.73-10.63.75a3.93,3.93,0,0,1-.45,4.95,6.66,6.66,0,0,1-4.95,1.84c2.51-.36,5.21-.34,7.41.91s3.11,3.59,3.1,6.09a3.47,3.47,0,0,1-1.4,2.45c-1.06,1-2.23,2-3.21,3.05,2.82,1.87,5.64,3.09,6.61,6.81,1.19,4.57-2.55,6.65-5.45,9.15,6.28.45,9.41,7.48,7.85,12.92h6.94a6.43,6.43,0,0,0,.19-6.52c7.41-.64,8.08-9.84,3.31-14.09.18-.07.37-.15.55-.24l.34-.17a7.9,7.9,0,0,0,.88-.53l.38-.28a8.61,8.61,0,0,0,2.87-4c1.46-4,.25-8.82-2.64-10.2,4-2.85,5.63-8.4,4.49-13a7.2,7.2,0,0,0-.36-1.2,9.77,9.77,0,0,0-.76-1.64,8,8,0,0,0-1-1.48c-.14-.15-.27-.3-.42-.44a4.35,4.35,0,0,0-.38-.36,8.61,8.61,0,0,0-1.62-1.15,3.17,3.17,0,0,0-.41-.21,2.09,2.09,0,0,0-.3-.14,2.54,2.54,0,0,0-.41-.18l-.67-.24c6-6,4.15-18.78-4.47-19.57,2.12-5.27,1.08-12.47-5.69-13.8,2.14-6.46-3.82-10.93-9.81-8.61-.26-6.81-9.9-7.2-12.06-2.41.11-2.63-3.84-7.51-6.37-7.52,4.38-3.42,3.16-10.27-.59-11.18,5.1-3.87,2.37-12.69-3.71-12.61a6.18,6.18,0,0,0,.93-4.65q0-.21-.09-.39c0-.09-.05-.16-.07-.24a2.58,2.58,0,0,0-.08-.26,9.46,9.46,0,0,0-.61-1.29,1.57,1.57,0,0,0-.2-.3,2.08,2.08,0,0,0-.19-.29,9.08,9.08,0,0,0-1.24-1.4l-.28-.25a8.64,8.64,0,0,0-.88-.69c-.3-.21-.61-.39-.92-.57l0,0c-.19-.11-.4-.2-.6-.3a8.43,8.43,0,0,0-1.45-.54l-.35-.1-.35-.08c1.76,2,3.36,4.56,2.08,7.25-1.14,2.41-4.24,2.83-6.3,3.84,4.88,1.65,7.13,6.55,3.49,10.85,5,.63,5.62,7.24,3.63,9.93-1.23-1.08-3.76-1.31-5.62-.95-2.5.47-3.84,1.73-6.08,4.24C435.77,229.35,440.26,235.89,437.45,239.74Z" id="elwk1odjm78zm" class="animable" style="transform-origin: 463.683px 269.21px;"></path><path d="M61.37,263c-5.64,2.54-7.63,4.49-7.5,11C51.76,270.8,44,272.53,42,275s-1.9,7.93.46,10.15c-7.35.7-8.59,7.23-6.44,12.89-3.36-.23-7.16,1.93-8.14,5.1-.72,2.33-.94,7.31,2.82,6.58-3.81,2.27-6.86,4.84-6.35,9.83.79,7.71,7,6.84,12.53,5.68.18,4.48,4,7.26,8.32,8.49H12.77c-2.5-1.56-3.16-3.63-1.95-6a11.57,11.57,0,0,1-1.34-.3c-.23-.06-.44-.13-.64-.2a6.56,6.56,0,0,1-1.5-.75l-.07-.05L7,326.2l-.25-.2-.08-.07-.28-.27-.06-.06,0,0a4.8,4.8,0,0,1-.55-.75l-.06-.09-.06-.12c-.06-.11-.11-.22-.16-.33l0,0a4.44,4.44,0,0,1-.22-.61,1.82,1.82,0,0,1-.07-.25A6.94,6.94,0,0,1,5,322.09c0-.12,0-.24,0-.37s0-.39,0-.58H5a6.3,6.3,0,0,1,0-.75,5,5,0,0,1,.08-.54,2.7,2.7,0,0,1,.08-.39,5.12,5.12,0,0,1,.15-.56c.07-.23.15-.46.24-.68h0c.09-.21.19-.42.3-.62A3.57,3.57,0,0,1,6.2,317a2.73,2.73,0,0,1,.21-.3c.13-.19.28-.38.43-.56s.3-.32.46-.47.23-.21.35-.31l.27-.21,1.36-.83.4-.17.42-.16c.21-.08.42-.14.64-.2a3.88,3.88,0,0,1-.45-.24c-.15-.08-.29-.17-.43-.26a8.13,8.13,0,0,1-.82-.59l-.39-.35a7.9,7.9,0,0,1-1.44-1.88,6.53,6.53,0,0,1-.39-.85c-.05-.14-.1-.27-.14-.4s-.12-.39-.17-.59,0-.24-.07-.36a.64.64,0,0,0,0-.07l-.06-.43c0-.14,0-.28,0-.42s0-.36,0-.54a6.45,6.45,0,0,1,0-.76.25.25,0,0,1,0-.08,5.93,5.93,0,0,1,.1-.72s0,0,0-.07c0-.19.08-.39.13-.58l.06-.21a0,0,0,0,0,0,0s0-.05,0-.07c.07-.23.15-.45.24-.68s.2-.47.31-.69.19-.35.28-.51a7.81,7.81,0,0,1,.5-.73c.11-.14.21-.27.33-.4a3.59,3.59,0,0,1,.39-.39c.12-.12.25-.23.38-.34l.07-.05a4.91,4.91,0,0,1,.44-.31A2.65,2.65,0,0,1,10,300l.51-.26.32-.13a1.75,1.75,0,0,1,.32-.12l1.44-.36a3.89,3.89,0,0,1-.22-.79,3.82,3.82,0,0,1,0-1.58c0-.13.06-.26.1-.39a2.29,2.29,0,0,1,.08-.28.54.54,0,0,1,.05-.11,1.73,1.73,0,0,1,.16-.37c0-.1.1-.2.16-.3a2.39,2.39,0,0,1,.21-.34,2.94,2.94,0,0,1,.31-.41.7.7,0,0,1,.14-.16,1.93,1.93,0,0,1,.27-.3l.16-.16a5.49,5.49,0,0,1,.52-.44,5,5,0,0,1,.47-.33,5.3,5.3,0,0,1,.57-.33,5.38,5.38,0,0,1,.6-.28l.29-.1.38-.14.38-.12.29-.07.72-.15.28,0a5.31,5.31,0,0,1,.68-.05h.26c.23,0,.45,0,.66.05l.25.05a4.26,4.26,0,0,1,.62.13l.26.09a5.37,5.37,0,0,1,.56.21l.27.13a5,5,0,0,1,.51.27,2.61,2.61,0,0,1,.28.17c.2.13.4.26.59.41l-.33-.25-.34-.28-.11-.09a3.65,3.65,0,0,1-.3-.27.93.93,0,0,1-.14-.14l-.26-.26-.17-.18-.11-.13-.11-.12-.15-.19,0,0a2.35,2.35,0,0,1-.19-.25l-.18-.25-.16-.24c-.06-.09-.12-.18-.17-.27l0,0-.12-.2,0-.07-.11-.21-.06-.14a.54.54,0,0,1,0-.11c0-.09-.07-.19-.11-.28l-.09-.26a2.68,2.68,0,0,0-.07-.27v0a2.21,2.21,0,0,1,0-.25,1.15,1.15,0,0,1,0-.26.43.43,0,0,0,0-.11c0-.06,0-.12,0-.17s0-.16,0-.24a1,1,0,0,0,0-.17s0-.09,0-.13a.14.14,0,0,1,0-.06.58.58,0,0,1,0-.14l0-.15a.84.84,0,0,1,.05-.17.51.51,0,0,1,.07-.17,2.07,2.07,0,0,1,.15-.34.83.83,0,0,1,.08-.12l.14-.21.11-.15a3.57,3.57,0,0,1,.42-.46c-2.54.12-5.33-.29-7-2.15-.12-.13-.23-.27-.34-.41a5.5,5.5,0,0,1-.58-.94,4.47,4.47,0,0,1-.46-2,4.07,4.07,0,0,1,0-.5,3.43,3.43,0,0,1,.08-.48,5.61,5.61,0,0,1,.41-1.2,2.36,2.36,0,0,1-.46-.17,2.91,2.91,0,0,1-.42-.23l-.23-.16a5.77,5.77,0,0,1-.67-.58,7.34,7.34,0,0,1-.8-1l0,0c-.12-.18-.23-.38-.34-.58s-.19-.39-.28-.6l0-.05a6.31,6.31,0,0,1-.42-1.85,10.94,10.94,0,0,1,0-1.81,10.12,10.12,0,0,1,.31-1.92,5.58,5.58,0,0,1,.18-.58c.06-.17.12-.34.19-.51l0-.08q.11-.25.24-.51c.08-.16.17-.32.26-.47l0-.07c.08-.14.18-.28.27-.41l.08-.1a4.94,4.94,0,0,1,.36-.44,3,3,0,0,1,.3-.32,3.07,3.07,0,0,1,.26-.25c.11-.1.22-.2.34-.29l0,0,.4-.28.12-.08c.15-.1.31-.19.47-.28l.84-.41c-.31-.27-.6-.55-.88-.84l-.39-.43-.33-.39c-.13-.17-.26-.33-.37-.5a7.79,7.79,0,0,1-.58-.95,4.44,4.44,0,0,1-.24-.49l-.15-.36a8.06,8.06,0,0,1-.32-1.06c-.06-.26-.1-.53-.14-.8s0-.27,0-.41,0-.32,0-.48a9.07,9.07,0,0,1,.11-1.44,7.09,7.09,0,0,1,.28-1.19c0-.16.1-.31.16-.46s.17-.43.27-.65l0-.06.19-.39a11.47,11.47,0,0,1,.91-1.43l.34-.44.36-.42a10.33,10.33,0,0,1,.74-.74l0-.05,1-.77a8.54,8.54,0,0,1,1.26-.75,5,5,0,0,1,.48-.21l.37-.14q.3-.1.6-.18a5.58,5.58,0,0,1-1.09-1.6c0-.11-.09-.22-.13-.34a3.62,3.62,0,0,1-.13-.35l0-.12a3.17,3.17,0,0,1-.12-.44,2.88,2.88,0,0,1-.09-.4s0,0,0,0c0-.19-.07-.37-.09-.55,0,0,0-.06,0-.08a4.93,4.93,0,0,1-.05-.54c0-.21,0-.41,0-.61s0-.58,0-.87v0c0-.23,0-.45.07-.67l0-.21a.5.5,0,0,1,0-.12,13.08,13.08,0,0,1,.3-1.49v0c.07-.25.13-.49.21-.72s.14-.42.21-.61a8.51,8.51,0,0,1,.55-1.16c2.22-3.73,5.53-6.09,9.85-5.72h0a8.16,8.16,0,0,1-.6-1.59c0-.13-.07-.25-.1-.38l-.09-.44,0-.19a7.3,7.3,0,0,1-.1-.94c0-.23,0-.45,0-.67s0-.4,0-.6,0-.34,0-.52,0-.2,0-.3a11.72,11.72,0,0,1,.36-1.64,10.77,10.77,0,0,1,.74-1.76,9.37,9.37,0,0,1,1.19-1.71c.16-.17.32-.34.5-.51s.41-.37.62-.55.44-.36.67-.52l.05,0a13.3,13.3,0,0,1,1.4-.89c-2.54,4.6.66,8.47,6.13,11.3a9.58,9.58,0,0,0-7.17,6.07c-1.17,3.93,1.37,6.11,4.55,7.95-6.86-.39-13.11,10.75-4.33,10.54-4.59,6.37,4.25,10.26,9,5-.29,2.19,1.32,3.43,3.25,3.94,4,1,6.7-2.18,8.7-4.88C51.93,262.25,58,263.21,61.37,263Z" id="elylm8f7u2j7" class="animable" style="transform-origin: 33.1794px 275.925px;"></path><path d="M55.18,333.67h.1v0Z" id="el19k9tiv7ni4j" class="animable" style="transform-origin: 55.23px 333.67px;"></path><path d="M132.71,232.06a6.91,6.91,0,0,0-9.58-1.84,6.78,6.78,0,0,0-1.46,1.36,6.89,6.89,0,0,0-11.59,2.48,8.2,8.2,0,0,1,13.32,3.38,5.6,5.6,0,0,0,.11-1.17,6.85,6.85,0,0,0-.57-2.76,7.31,7.31,0,0,1,.8-.65,8.18,8.18,0,0,1,9.54.24A5.31,5.31,0,0,0,132.71,232.06Z" id="el4o55yc0qpu7" class="animable" style="transform-origin: 121.68px 233.238px;"></path><path d="M138.57,207.82a5.54,5.54,0,0,1,7.23-3,5.39,5.39,0,0,1,1.37.83,5.52,5.52,0,0,1,9.51.08,6.59,6.59,0,0,0-9.93,4.81,4.56,4.56,0,0,1-.27-.91,5.38,5.38,0,0,1,0-2.26,6.45,6.45,0,0,0-.74-.38,6.58,6.58,0,0,0-7.46,1.72A4.44,4.44,0,0,1,138.57,207.82Z" id="el463kugz0fhi" class="animable" style="transform-origin: 147.48px 206.757px;"></path><path d="M192.89,208a4.25,4.25,0,0,1,6-.29,4.34,4.34,0,0,1,.77.95,4.23,4.23,0,0,1,6.83,2.51,5.09,5.09,0,0,0-3.2-1.8,5,5,0,0,0-5.19,2.7,3.53,3.53,0,0,1,0-.72,4.09,4.09,0,0,1,.59-1.63,3.72,3.72,0,0,0-.43-.46,5,5,0,0,0-5.82-.68A2.9,2.9,0,0,1,192.89,208Z" id="el6u6f1zoid79" class="animable" style="transform-origin: 199.465px 209.339px;"></path></g></g></g><ellipse id="freepik--floor--inject-163" cx="250" cy="352.17" rx="240.88" ry="139.07" style="fill: rgb(240, 240, 240); transform-origin: 250px 352.17px;" class="animable"></ellipse><path id="freepik--Trail--inject-163" d="M98.52,244c-6.5,3.05-12.8,6.31-18.85,9.8C22,287.12-.3,333.09,12.73,376.2l195.65,113c74.66,7.52,154.28-5.36,211.94-38.65q9.07-5.24,17-10.88Z" style="fill: rgb(250, 250, 250); transform-origin: 223.223px 367.639px;" class="animable"></path></g></g><g id="freepik--Clouds--inject-163" class="animable" style="transform-origin: 254.348px 71.7857px;"><path id="freepik--Cloud--inject-163" d="M429.68,40.35c0-3.51-3.85-6-8.21-6.36-5.14-.49-8.78,1.8-8.9,5.85-3.36-1.38-6.9-.5-6.64,3.19-.87-1-4.14-1-5.31-.69a4.58,4.58,0,0,0-2.93,2.49,3.46,3.46,0,0,0-.3,1.89c-2-.64-6.41-1-7.53.76-2,3.2,5.94,3.3,7.54,2.33.34,2.49,8.85,2.9,10.91.6,1.61,1.63,3.92,2,6.42,2.13,4.21.25,6.79-1.17,10.08-2.85,3.57,3,9.75,3.08,13-.38.83.77,3.09,1,4.9.58,1.19-.28,1.46-.79,1.46-.79a11,11,0,0,0,2.19.66c2.33.48,6.68,0,4.85-2.14-.62-.71-2.89-1.16-3.85-.94-1-2-5.11-3.91-7.46-2.21-.09-2.43-2.3-4.33-5.43-4.81C433.39,39.5,430.88,39.36,429.68,40.35Z" style="fill: rgb(245, 245, 245); transform-origin: 420.594px 43.2466px;" class="animable"></path><path id="freepik--cloud--inject-163" d="M64.9,96.72c0-3.87-4.24-6.56-9-7-5.66-.53-9.68,2-9.81,6.45-3.7-1.52-7.6-.55-7.31,3.52-1-1.11-4.56-1.08-5.86-.77a5.08,5.08,0,0,0-3.22,2.75,3.71,3.71,0,0,0-.33,2.08c-2.16-.71-7.07-1.14-8.29.84-2.19,3.52,6.54,3.63,8.3,2.57.37,2.74,9.75,3.19,12,.66,1.77,1.79,4.32,2.18,7.07,2.34,4.64.28,7.48-1.29,11.1-3.14,3.94,3.34,10.74,3.4,14.29-.42.9.85,3.4,1.12,5.39.64,1.31-.31,1.62-.87,1.62-.87a10.89,10.89,0,0,0,2.4.72c2.58.54,7.36,0,5.35-2.34-.68-.79-3.18-1.29-4.25-1-1.12-2.21-5.62-4.3-8.21-2.43-.1-2.67-2.54-4.77-6-5.3C69,95.78,66.22,95.63,64.9,96.72Z" style="fill: rgb(245, 245, 245); transform-origin: 54.9053px 99.9214px;" class="animable"></path><path id="freepik--cloud--inject-163" d="M458.9,88.65c0-4.64-5.09-7.87-10.85-8.41-6.79-.64-11.61,2.38-11.77,7.73-4.44-1.82-9.12-.65-8.77,4.23-1.16-1.33-5.48-1.29-7-.92a6.09,6.09,0,0,0-3.87,3.29,4.49,4.49,0,0,0-.4,2.5c-2.59-.85-8.48-1.37-9.95,1-2.62,4.23,7.85,4.36,10,3.08.45,3.29,11.7,3.83,14.43.8,2.12,2.14,5.18,2.61,8.48,2.81,5.57.33,9-1.56,13.33-3.77,4.72,4,12.89,4.07,17.14-.51,1.09,1,4.08,1.34,6.47.77,1.57-.37,1.94-1,1.94-1a13.06,13.06,0,0,0,2.89.86c3.08.65,8.83,0,6.42-2.81-.82-1-3.83-1.55-5.1-1.26-1.35-2.64-6.75-5.15-9.85-2.91-.12-3.21-3.06-5.72-7.19-6.36C463.8,87.53,460.48,87.34,458.9,88.65Z" style="fill: rgb(245, 245, 245); transform-origin: 446.919px 92.4764px;" class="animable"></path><path id="freepik--cloud--inject-163" d="M129.39,51.94a10,10,0,0,0-3.38-.62c-1.09-.09-1.44-.3-1.65-.54a8,8,0,0,0-9.67-2.86,6.18,6.18,0,0,0-7.3-4.12c.12-3.41-4.22-7.06-8.12-7.89-3.75-.8-7-.46-9.14,2-2.29-4.47-11.25-5.72-16.1-3.36-2.78,1.36-5.15,2.75-6.31,5.3a10.77,10.77,0,0,0-1,5.08c-1.89-1.66-5.67-2.11-8.19-1.14-2.72,1.06-2.93,3.11-3.06,5.19a9.66,9.66,0,0,0-5-.09c-1.71.51-2.7,1.86-2.47,3-1.35-.08-4.58,1-4.21,2.45.42,1.61,4.11,1.44,5.48,1.39a26.49,26.49,0,0,0,3.86-.6,6.25,6.25,0,0,0,2,.38c2.35,0,3.34-1,3.72-1.9C60,56,64.08,57.81,67,58.55c5.44,1.39,13.12.54,16.47-3.52a6,6,0,0,0,1.62,2,9.4,9.4,0,0,0,5,2c2.23.21,8.22.5,9.91-3,1.19,2.36,6.52,3.43,10.58,2.86a16.77,16.77,0,0,0,4.53-1.37,26.12,26.12,0,0,0,2.61-1.57,2.18,2.18,0,0,1,2.23-.15,13.24,13.24,0,0,0,8.85,0C131,54.8,131.51,52.9,129.39,51.94Z" style="fill: rgb(245, 245, 245); transform-origin: 87.2509px 46.2747px;" class="animable"></path></g><g id="freepik--Shadows--inject-163" class="animable" style="transform-origin: 265.556px 342.335px;"><path id="freepik--Shadow--inject-163" d="M216.13,271.08,399.93,377.2a7.48,7.48,0,0,0,6.77,0l56.75-32.77c1.87-1.08,1.87-2.83,0-3.91L279.65,234.4a7.48,7.48,0,0,0-6.77,0l-56.75,32.77C214.26,268.25,214.26,270,216.13,271.08Z" style="fill: rgb(230, 230, 230); transform-origin: 339.79px 305.8px;" class="animable"></path><g id="freepik--shadow--inject-163"><ellipse cx="354.32" cy="405.03" rx="79.77" ry="46.05" style="opacity: 0.1; transform-origin: 354.32px 405.03px;" class="animable"></ellipse></g><g id="freepik--shadow--inject-163"><ellipse cx="146.03" cy="405.03" rx="79.77" ry="46.05" style="opacity: 0.1; transform-origin: 146.03px 405.03px;" class="animable"></ellipse></g></g><g id="freepik--Bench--inject-163" class="animable" style="transform-origin: 344.285px 246.918px;"><g id="freepik--bench--inject-163" class="animable" style="transform-origin: 344.285px 246.918px;"><path d="M318.86,276.61a4,4,0,0,0,2-.53l42.71-24.66a15.17,15.17,0,0,0,7.57-13.11V189a4,4,0,0,0-7.93,0v49.32a7.24,7.24,0,0,1-3.61,6.25l-42.71,24.66a4,4,0,0,0,2,7.39Z" style="fill: rgb(224, 224, 224); transform-origin: 343.075px 231.074px;" id="elf9ptdzapq9o" class="animable"></path><path d="M406.05,325.84a4,4,0,0,0,2-.53l42.71-24.66a15.19,15.19,0,0,0,7.57-13.11V238.21a4,4,0,0,0-7.93,0v49.33a7.23,7.23,0,0,1-3.6,6.24l-42.71,24.66a4,4,0,0,0,2,7.4Z" style="fill: rgb(224, 224, 224); transform-origin: 430.262px 280.289px;" id="el4yqi5vsjrpm" class="animable"></path><path d="M234.66,227a3.89,3.89,0,0,0,2-.54l42.71-24.66a15.17,15.17,0,0,0,7.57-13.11V139.39a4,4,0,0,0-7.93,0v49.32a7.24,7.24,0,0,1-3.61,6.25l-42.71,24.66a4,4,0,0,0,2,7.4Z" style="fill: rgb(224, 224, 224); transform-origin: 258.867px 181.469px;" id="elzk62ml5miw" class="animable"></path><path d="M398.66,320.93v45.64a2.24,2.24,0,0,0,1.32,1.84,7.07,7.07,0,0,0,6.37,0,2.24,2.24,0,0,0,1.31-1.84V320.93Z" style="fill: rgb(224, 224, 224); transform-origin: 403.16px 345.049px;" id="elev2n1ymnt6o" class="animable"></path><path d="M436.33,299.47v45.64a2.24,2.24,0,0,0,1.32,1.84,7.07,7.07,0,0,0,6.37,0,2.24,2.24,0,0,0,1.32-1.84V299.47Z" style="fill: rgb(224, 224, 224); transform-origin: 440.835px 323.589px;" id="el10ycqbq37q3" class="animable"></path><path d="M227.41,222.05V267.7a2.25,2.25,0,0,0,1.32,1.84,7.07,7.07,0,0,0,6.37,0,2.25,2.25,0,0,0,1.32-1.84V222.05Z" style="fill: rgb(224, 224, 224); transform-origin: 231.915px 246.174px;" id="el7cvffyhakzk" class="animable"></path><path d="M265.09,200.59v45.65a2.25,2.25,0,0,0,1.32,1.84,7.05,7.05,0,0,0,6.36,0,2.25,2.25,0,0,0,1.32-1.84V200.59Z" style="fill: rgb(224, 224, 224); transform-origin: 269.59px 224.714px;" id="el4fkch4n2we4" class="animable"></path><path d="M467.14,249.41l.79-.46a5.06,5.06,0,0,0,2.29-4v-7.11a5.08,5.08,0,0,0-2.29-4L279.67,125.22a5,5,0,0,0-4.57,0l-.79.46a5,5,0,0,0-2.29,4v7.11a5,5,0,0,0,2.29,4l188.25,108.7A5.06,5.06,0,0,0,467.14,249.41Z" style="fill: rgb(250, 250, 250); transform-origin: 371.12px 187.333px;" id="elhyvl83fn4u7" class="animable"></path><path d="M459.49,241.43l10.06-5.81a4.75,4.75,0,0,1,.67,2.26V245a5,5,0,0,1-2.29,4l-.79.46a5.06,5.06,0,0,1-4.58,0l-3.07-1.78Z" style="fill: rgb(224, 224, 224); transform-origin: 464.855px 242.814px;" id="elv7xg0zsm1y" class="animable"></path><path d="M462.56,237,274.31,128.32c-1.27-.73-2.29-.14-2.29,1.32v7.11a5,5,0,0,0,2.29,4l188.25,108.7c1.27.73,2.29.13,2.29-1.33V241A5.05,5.05,0,0,0,462.56,237Z" style="fill: rgb(240, 240, 240); transform-origin: 368.435px 188.884px;" id="elmsc6pqqlm8t" class="animable"></path><path d="M467.14,271.14l.79-.45a5.08,5.08,0,0,0,2.29-4v-7.11a5.06,5.06,0,0,0-2.29-4L279.67,147a5,5,0,0,0-4.57,0l-.79.45a5.05,5.05,0,0,0-2.29,4v7.11a5,5,0,0,0,2.29,4L462.56,271.14A5.06,5.06,0,0,0,467.14,271.14Z" style="fill: rgb(250, 250, 250); transform-origin: 371.12px 209.068px;" id="elq694o8zzd" class="animable"></path><path d="M459.49,263.17l10.06-5.81a4.68,4.68,0,0,1,.67,2.25v7.11a5.05,5.05,0,0,1-2.29,4l-.79.45a5.06,5.06,0,0,1-4.58,0l-3.07-1.78Z" style="fill: rgb(224, 224, 224); transform-origin: 464.855px 264.539px;" id="elb7cdnbfpcx8" class="animable"></path><path d="M462.56,258.75,274.31,150.06c-1.27-.73-2.29-.14-2.29,1.32v7.11a5,5,0,0,0,2.29,4L462.56,271.14c1.27.73,2.29.14,2.29-1.32v-7.11A5,5,0,0,0,462.56,258.75Z" style="fill: rgb(240, 240, 240); transform-origin: 368.435px 210.6px;" id="elt78nvga68qr" class="animable"></path><path d="M467.14,292.88l.79-.46a5.06,5.06,0,0,0,2.29-4v-7.11a5,5,0,0,0-2.29-4L279.67,168.69a5,5,0,0,0-4.57,0l-.79.46a5,5,0,0,0-2.29,4v7.11a5.05,5.05,0,0,0,2.29,4L462.56,292.88A5.06,5.06,0,0,0,467.14,292.88Z" style="fill: rgb(250, 250, 250); transform-origin: 371.12px 230.783px;" id="ellmws6c19y8" class="animable"></path><path d="M459.49,284.9l10.06-5.81a4.75,4.75,0,0,1,.67,2.26v7.11a5,5,0,0,1-2.29,4l-.79.46a5.06,5.06,0,0,1-4.58,0l-3.07-1.78Z" style="fill: rgb(224, 224, 224); transform-origin: 464.855px 286.279px;" id="elnpnpte4enl" class="animable"></path><path d="M462.56,280.48,274.31,171.79c-1.27-.73-2.29-.14-2.29,1.32v7.11a5.05,5.05,0,0,0,2.29,4L462.56,292.88c1.27.73,2.29.14,2.29-1.32v-7.11A5.05,5.05,0,0,0,462.56,280.48Z" style="fill: rgb(240, 240, 240); transform-origin: 368.435px 232.335px;" id="elvheyxklsmj" class="animable"></path><path d="M459.49,306V307a5.06,5.06,0,0,1-2.29,4L451,314.47a5.06,5.06,0,0,1-4.58,0L258.2,205.78a5.07,5.07,0,0,1-2.28-4v-.91a5.05,5.05,0,0,1,2.28-4l6.16-3.56a5.06,5.06,0,0,1,4.58,0L457.2,302.07A5.08,5.08,0,0,1,459.49,306Z" style="fill: rgb(240, 240, 240); transform-origin: 357.705px 253.89px;" id="elts94veo47k" class="animable"></path><path d="M448.75,303.4V315a4.73,4.73,0,0,0,2.29-.55l6.16-3.56a5.06,5.06,0,0,0,2.29-4V306a5.08,5.08,0,0,0-2.29-4l-3.08-1.77Z" style="fill: rgb(224, 224, 224); transform-origin: 454.12px 307.615px;" id="elhfqf2ipw26l" class="animable"></path><path d="M446.46,308.27,258.2,199.58a1.39,1.39,0,0,1,0-2.64l6.16-3.56a5.06,5.06,0,0,1,4.58,0L457.2,302.07a1.4,1.4,0,0,1,0,2.65L451,308.27A5.06,5.06,0,0,1,446.46,308.27Z" style="fill: rgb(250, 250, 250); transform-origin: 357.697px 250.82px;" id="elw1g636wes7" class="animable"></path><path d="M440.7,316.88v.91a5.05,5.05,0,0,1-2.29,4l-6.15,3.55a5.06,5.06,0,0,1-4.58,0L239.42,216.62a5.06,5.06,0,0,1-2.29-4v-.91a5.08,5.08,0,0,1,2.29-4l6.16-3.55a5,5,0,0,1,4.57,0L438.41,312.92A5,5,0,0,1,440.7,316.88Z" style="fill: rgb(240, 240, 240); transform-origin: 338.915px 264.748px;" id="elki9fy30r9y" class="animable"></path><path d="M430,314.24v11.62a4.62,4.62,0,0,0,2.29-.55l6.15-3.55a5.05,5.05,0,0,0,2.29-4v-.91a5,5,0,0,0-2.29-4l-3.07-1.78Z" style="fill: rgb(224, 224, 224); transform-origin: 435.365px 318.466px;" id="el6iszhrn51y" class="animable"></path><path d="M427.68,319.12,239.42,210.43a1.4,1.4,0,0,1,0-2.65l6.16-3.55a5,5,0,0,1,4.57,0L438.41,312.92c1.27.73,1.27,1.91,0,2.64l-6.15,3.56A5.06,5.06,0,0,1,427.68,319.12Z" style="fill: rgb(250, 250, 250); transform-origin: 338.917px 261.673px;" id="ela8pucwsw0yh" class="animable"></path><path d="M421.92,327.73v.91a5.06,5.06,0,0,1-2.29,4l-6.16,3.56a5,5,0,0,1-4.57,0L220.64,227.47a5.05,5.05,0,0,1-2.29-4v-.91a5,5,0,0,1,2.29-4l6.15-3.56a5.06,5.06,0,0,1,4.58,0L419.63,323.76A5.08,5.08,0,0,1,421.92,327.73Z" style="fill: rgb(240, 240, 240); transform-origin: 320.135px 275.602px;" id="elz3i27xyliy" class="animable"></path><path d="M411.19,325.08V336.7a4.71,4.71,0,0,0,2.28-.54l6.16-3.56a5.06,5.06,0,0,0,2.29-4v-.91a5.08,5.08,0,0,0-2.29-4L416.55,322Z" style="fill: rgb(224, 224, 224); transform-origin: 416.555px 329.35px;" id="ellfljarrfm8" class="animable"></path><path d="M408.9,330,220.64,221.27c-1.27-.73-1.27-1.91,0-2.64l6.15-3.56a5.06,5.06,0,0,1,4.58,0L419.63,323.76a1.4,1.4,0,0,1,0,2.65L413.47,330A5,5,0,0,1,408.9,330Z" style="fill: rgb(250, 250, 250); transform-origin: 320.133px 272.537px;" id="el5td2osrv0g3" class="animable"></path><path d="M454.35,236.51a3.28,3.28,0,0,1,1.47,2.56c0,.93-.66,1.32-1.47.85a3.26,3.26,0,0,1-1.48-2.56C452.87,236.42,453.53,236,454.35,236.51Z" style="fill: rgb(224, 224, 224); transform-origin: 454.345px 238.205px;" id="eltgaxr1t789" class="animable"></path><path d="M454.35,258.2a3.28,3.28,0,0,1,1.47,2.56c0,.93-.66,1.32-1.47.85a3.26,3.26,0,0,1-1.48-2.56C452.87,258.11,453.53,257.73,454.35,258.2Z" style="fill: rgb(224, 224, 224); transform-origin: 454.345px 259.904px;" id="eleeupcg1ak2u" class="animable"></path><path d="M454.35,279.89a3.28,3.28,0,0,1,1.47,2.56c0,.93-.66,1.32-1.47.85a3.26,3.26,0,0,1-1.48-2.56C452.87,279.8,453.53,279.42,454.35,279.89Z" style="fill: rgb(224, 224, 224); transform-origin: 454.345px 281.594px;" id="elsco7g0d3s08" class="animable"></path><path d="M283,137.74a3.26,3.26,0,0,1,1.48,2.56c0,.94-.66,1.32-1.48.85a3.28,3.28,0,0,1-1.47-2.56C281.48,137.66,282.14,137.27,283,137.74Z" style="fill: rgb(224, 224, 224); transform-origin: 283.004px 139.446px;" id="el2b5upl5ao6a" class="animable"></path><path d="M283,159.43a3.26,3.26,0,0,1,1.48,2.56c0,.94-.66,1.32-1.48.85a3.27,3.27,0,0,1-1.47-2.55C281.48,159.35,282.14,159,283,159.43Z" style="fill: rgb(224, 224, 224); transform-origin: 283.004px 161.145px;" id="elvxbwusz1cia" class="animable"></path><path d="M283,181.12a3.26,3.26,0,0,1,1.48,2.56c0,.94-.66,1.32-1.48.85a3.27,3.27,0,0,1-1.47-2.55C281.48,181,282.14,180.66,283,181.12Z" style="fill: rgb(224, 224, 224); transform-origin: 283.004px 182.825px;" id="elfagx5unz7lk" class="animable"></path><path d="M442.13,297.79a.79.79,0,0,1,0,1.49,2.82,2.82,0,0,1-2.59,0,.79.79,0,0,1,0-1.49A2.88,2.88,0,0,1,442.13,297.79Z" style="fill: rgb(224, 224, 224); transform-origin: 440.835px 298.539px;" id="elvfke3sprgc" class="animable"></path><path d="M423.29,308.72c.72.41.72,1.08,0,1.5a2.86,2.86,0,0,1-2.58,0c-.72-.42-.72-1.09,0-1.5A2.88,2.88,0,0,1,423.29,308.72Z" style="fill: rgb(224, 224, 224); transform-origin: 422px 309.471px;" id="elw2lf67hwmj" class="animable"></path><path d="M404.46,319.66a.79.79,0,0,1,0,1.49,2.88,2.88,0,0,1-2.59,0,.78.78,0,0,1,0-1.49A2.82,2.82,0,0,1,404.46,319.66Z" style="fill: rgb(224, 224, 224); transform-origin: 403.154px 320.401px;" id="el15f0s4gfc1w" class="animable"></path><path d="M270.88,199a.79.79,0,0,1,0,1.49,2.88,2.88,0,0,1-2.59,0,.79.79,0,0,1,0-1.49A2.82,2.82,0,0,1,270.88,199Z" style="fill: rgb(224, 224, 224); transform-origin: 269.585px 199.741px;" id="elpa1obdcmdw" class="animable"></path><path d="M252.05,209.91a.79.79,0,0,1,0,1.49,2.82,2.82,0,0,1-2.59,0,.78.78,0,0,1,0-1.49A2.88,2.88,0,0,1,252.05,209.91Z" style="fill: rgb(224, 224, 224); transform-origin: 250.744px 210.659px;" id="elucozpfwocc" class="animable"></path><path d="M233.21,220.84a.79.79,0,0,1,0,1.5,2.88,2.88,0,0,1-2.59,0,.79.79,0,0,1,0-1.5A2.88,2.88,0,0,1,233.21,220.84Z" style="fill: rgb(224, 224, 224); transform-origin: 231.915px 221.59px;" id="ell8t8jcl5qgl" class="animable"></path><path d="M367.16,187.34a3.26,3.26,0,0,1,1.47,2.55c0,.94-.66,1.32-1.47.85a3.24,3.24,0,0,1-1.48-2.55C365.68,187.25,366.34,186.87,367.16,187.34Z" style="fill: rgb(224, 224, 224); transform-origin: 367.155px 189.04px;" id="elztwuum7wn4" class="animable"></path><path d="M367.16,209a3.26,3.26,0,0,1,1.47,2.55c0,.94-.66,1.32-1.47.85a3.24,3.24,0,0,1-1.48-2.55C365.68,208.94,366.34,208.56,367.16,209Z" style="fill: rgb(224, 224, 224); transform-origin: 367.155px 210.709px;" id="el46v47okhl37" class="animable"></path><path d="M367.16,230.72a3.26,3.26,0,0,1,1.47,2.55c0,.94-.66,1.32-1.47.85a3.24,3.24,0,0,1-1.48-2.55C365.68,230.63,366.34,230.25,367.16,230.72Z" style="fill: rgb(224, 224, 224); transform-origin: 367.155px 232.42px;" id="elkx853sxc0i" class="animable"></path><path d="M355.08,248.57c.72.42.72,1.09,0,1.5a2.88,2.88,0,0,1-2.59,0c-.72-.41-.72-1.08,0-1.5A2.86,2.86,0,0,1,355.08,248.57Z" style="fill: rgb(224, 224, 224); transform-origin: 353.785px 249.319px;" id="ely7i6f5zqjto" class="animable"></path><path d="M336.25,259.51a.79.79,0,0,1,0,1.49,2.88,2.88,0,0,1-2.59,0,.79.79,0,0,1,0-1.49A2.82,2.82,0,0,1,336.25,259.51Z" style="fill: rgb(224, 224, 224); transform-origin: 334.955px 260.251px;" id="elfoqj3jf2q5" class="animable"></path><path d="M317.41,270.44a.78.78,0,0,1,0,1.49,2.8,2.8,0,0,1-2.58,0,.79.79,0,0,1,0-1.49A2.88,2.88,0,0,1,317.41,270.44Z" style="fill: rgb(224, 224, 224); transform-origin: 316.131px 271.19px;" id="el3sb3y8fobmh" class="animable"></path></g></g><g id="freepik--character-2--inject-163" class="animable" style="transform-origin: 329.099px 237.221px;"><g id="freepik--Character--inject-163" class="animable" style="transform-origin: 329.099px 237.221px;"><g id="freepik--Bottom--inject-163" class="animable" style="transform-origin: 353.021px 310.418px;"><path d="M378.53,198.26c3,8.32,4,19.92,5.62,39,1.55,18.64,2.78,31.37,3.74,49.62,2.09,4.92,10.34,18.94,12.91,38.87,1.48,11.51,3.51,33.51,5.66,45l1.52,7c-1.37,8.71-14,9.8-15.85,4.72a45,45,0,0,1-3.07-6.88c-6-15.89-17.05-47.28-21.35-59.41-3.35-9.42-15.33-43.62-21.85-62.21l-7.05,39.35s3.42,13-1,39.28c-2.08,12.31-4.57,23.81-5.47,41.24-.09,1.86-1.86,4.54-1.86,6.41,0,.54-1.37,2.33-6.5,3.22s-10.59-2.53-10.57-3.28c.51-19.25-2.05-68.64-2.46-81.56-1-31.79-.1-82.77.7-103.07Z" style="fill: rgb(255, 189, 167); transform-origin: 359.244px 290.536px;" id="elnx6rlicsmd" class="animable"></path><path d="M287.85,406.24c-.33,0-.56,3.62,1.3,5,2.15,1.6,8.3,4.05,16.09,2.48s9.88-3.31,12.83-6.17,5.66-5.82,9.16-6.86c3.25-1,8.18-2.64,9.17-3.74s.51-5.63.51-5.63Z" style="fill: rgb(38, 50, 56); transform-origin: 312.326px 402.772px;" id="elgaxhhgga6zt" class="animable"></path><path d="M332.51,371.87a1.4,1.4,0,0,1,1.4,1c.33,1.23.85,4.85,1.52,6.87a52.26,52.26,0,0,1,1.45,13.18c-.27,2.35-7,4.28-10.34,5.84s-5.84,3.58-9.2,6.77a24.27,24.27,0,0,1-14.15,6.36c-6.06.38-13-1.1-14.79-3.8-2.18-3.34-2.71-6.66,6-11.46,1.64-.91,6.67-4.36,8.61-5.79a38.16,38.16,0,0,0,5.92-5.21,30.43,30.43,0,0,0,2.14-2.53,7.61,7.61,0,0,0,1.06-2.62c.42-1.7.06-3.48.22-5.22a1,1,0,0,1,.13-.45.86.86,0,0,1,.38-.27,10.53,10.53,0,0,1,4.39-.54,17.29,17.29,0,0,1,4.51.69,3.7,3.7,0,0,1,2.13,1.15,3.38,3.38,0,0,1,.52,1.65,12.66,12.66,0,0,0,.17,1.74,1.05,1.05,0,0,0,.27.56c.33.28.8,0,1-.26a23.38,23.38,0,0,0,2.22-3.08c.39-.55,2.27-1,2.77-1.48a14.8,14.8,0,0,0,1.47-1.1C332.85,373.27,332.53,372.6,332.51,371.87Z" style="fill: rgb(55, 71, 79); transform-origin: 311.965px 391.909px;" id="eljvq1uy4neyf" class="animable"></path><path d="M317.34,405.52a46.17,46.17,0,0,1,3.94-3.49h0s-9.31,4.47-13.78,1.85c-2.89-1.68-1.74-4.06-1.73-4.8s-7-3.37-9.69-3.5h0c-.71.46-1.31.84-1.69,1.05-8.7,4.8-8.18,8.12-6,11.46,1.76,2.7,6.86,4.54,14.7,4A25,25,0,0,0,317.34,405.52Z" style="fill: rgb(69, 90, 100); transform-origin: 304.157px 403.882px;" id="eldiwlg3voodc" class="animable"></path><path d="M306.36,396.89c-5.43,2.64-3,3.51-1.39,3.62s9.14-5,14.56-9.94c5.65-5.16,10.51-10.53,12.61-12.43.78-.71,1.62-1.57,2.36-2.37-.23-1.22-.43-2.33-.59-2.91a2,2,0,0,0-1.54-1.25l0,2.25a4.32,4.32,0,0,1-1.57.95,7.18,7.18,0,0,0-2.67,1.63,23.38,23.38,0,0,1-2.22,3.08C321.44,386.07,311.79,394.26,306.36,396.89Z" style="fill: rgb(38, 50, 56); transform-origin: 318.755px 386.061px;" id="el7nba7da93jt" class="animable"></path><path d="M305.31,399.66a.53.53,0,0,0,.34-.15.55.55,0,0,0,0-.78,13.29,13.29,0,0,0-10.52-3.31.55.55,0,0,0,.19,1.09,12.32,12.32,0,0,1,9.52,3A.56.56,0,0,0,305.31,399.66Z" style="fill: rgb(240, 240, 240); transform-origin: 300.243px 397.493px;" id="el0xa0pgbwiwyk" class="animable"></path><path d="M310,396.56a.51.51,0,0,0,.34-.14.54.54,0,0,0,0-.78,13.34,13.34,0,0,0-10.44-3.56.57.57,0,0,0-.47.64.56.56,0,0,0,.64.46,12.4,12.4,0,0,1,9.45,3.2A.54.54,0,0,0,310,396.56Z" style="fill: rgb(240, 240, 240); transform-origin: 304.966px 394.291px;" id="elizni9b9zbwc" class="animable"></path><path d="M314.29,393.11a.53.53,0,0,0,.34-.15.55.55,0,0,0,0-.78,13.29,13.29,0,0,0-10.52-3.31.54.54,0,0,0-.45.64.55.55,0,0,0,.64.45c3.81-.69,8.17,1.54,9.53,3A.53.53,0,0,0,314.29,393.11Z" style="fill: rgb(240, 240, 240); transform-origin: 309.221px 390.943px;" id="elovst970qnxa" class="animable"></path><path d="M318.07,390a.54.54,0,0,0,.35-.14.55.55,0,0,0,.05-.78,13.38,13.38,0,0,0-10.37-3.76.57.57,0,0,0-.48.63.56.56,0,0,0,.63.47,12.38,12.38,0,0,1,9.39,3.39A.56.56,0,0,0,318.07,390Z" style="fill: rgb(240, 240, 240); transform-origin: 313.112px 387.64px;" id="elpz1sp8gna0p" class="animable"></path><path d="M322.12,386.36a.62.62,0,0,0,.34-.13.56.56,0,0,0,.07-.79c-2.26-2.67-7.24-4.32-11.34-3.73a.56.56,0,0,0,.15,1.1c3.7-.53,8.33,1,10.34,3.35A.57.57,0,0,0,322.12,386.36Z" style="fill: rgb(240, 240, 240); transform-origin: 316.72px 383.975px;" id="elmhxrmlr88h9" class="animable"></path><path d="M396.18,410.94c1.12,5.35,2.5,8.8,4.89,11.67s6.16,3.32,9.67,1.84,7.83-4.66,8.18-9.47-.35-8-1.94-12.85Z" style="fill: rgb(38, 50, 56); transform-origin: 407.594px 413.703px;" id="eltx73ykq1boe" class="animable"></path><path d="M406.46,370.72c1.33.21,2.77,7.55,4.73,14.67,2.1,7.63,3.83,9.77,5.62,16,2.05,7.14,1.91,9.65,0,14.44s-10.26,10.47-15.67,4.84c-4.4-4.6-5.16-9.48-5.93-16.8a152.91,152.91,0,0,0-2.67-17.31c-1.11-5.41-4.72-10.17-3.5-11-.22.15,1.38,3.65,1.52,3.95a6.9,6.9,0,0,0,1.09,1.9c.86.91.95-.8.86-1.43-.17-1.07-.65-1.88.05-2.91a6.53,6.53,0,0,1,2.06-1.62,13.47,13.47,0,0,1,2.62-1.2,29,29,0,0,1,5.77-1.2,2.8,2.8,0,0,1,2.38.6,1.5,1.5,0,0,1,.3.54c.26.69.29,1.44.54,2.13.07.19.23.7.44.78s.51,0,.5-.15S406.79,372,406.46,370.72Z" style="fill: rgb(55, 71, 79); transform-origin: 403.543px 396.867px;" id="el8nnr1yuhsl" class="animable"></path><path d="M416.13,399c.3,1,2,7.48.32,9s-3.8-3.63-3.8-3.63-5-.75-11.57,3.37c.53,1.08,0,5-2,4.46s-3.73-7.55-3.76-7.66c.76,7,1.59,11.71,5.86,16.17,5.41,5.63,13.79-.05,15.67-4.84s2-7.3,0-14.44C416.61,400.7,416.36,399.6,416.13,399Z" style="fill: rgb(69, 90, 100); transform-origin: 406.813px 411.027px;" id="elchos26z9ol" class="animable"></path><path d="M412.17,404.9c.43,2.63,2.64,1.37,2.45-2.39-.3-5.63-2.48-10.72-3.43-17.12-2-7.12-3.21-14.78-4.73-14.67.24,1.25.73,6.28.73,6.28,1.29,5.36,3.67,11.49,4.3,17.11C412,399.07,411.74,402.27,412.17,404.9Z" style="fill: rgb(38, 50, 56); transform-origin: 410.546px 388.506px;" id="el4wyvjb0bbpe" class="animable"></path><path d="M401.88,407.53c-.88-2.51-1.83-3.12-3.09-7.95s-5.29-13.19-7.12-18.34c-.53-1.6-2.59-5.58-2.61-5.63-.88.6.48,3.51,1.72,6.67s2,5.11,3,8.19c2.24,6.07,3.44,12.7,4.83,16.19S402.77,410,401.88,407.53Z" style="fill: rgb(38, 50, 56); transform-origin: 395.416px 392.474px;" id="eldhr52iihwr" class="animable"></path><path d="M401.31,407.74a.41.41,0,0,0,.19-.09,18,18,0,0,1,11.43-2.95.56.56,0,1,0,.12-1.12,18.83,18.83,0,0,0-12.22,3.16.57.57,0,0,0-.12.79A.56.56,0,0,0,401.31,407.74Z" style="fill: rgb(240, 240, 240); transform-origin: 407.079px 405.633px;" id="el5k8qyz9y247" class="animable"></path><path d="M399,402.75l.17-.08c.06,0,6.29-4.13,13.32-3.58a.58.58,0,0,0,.61-.53.56.56,0,0,0-.53-.6c-7.42-.57-13.78,3.61-14,3.77a.57.57,0,0,0-.15.79A.58.58,0,0,0,399,402.75Z" style="fill: rgb(240, 240, 240); transform-origin: 405.712px 400.334px;" id="elu6gvnq3nx8i" class="animable"></path><path d="M412.61,394.69a.56.56,0,0,0,.42-.44.57.57,0,0,0-.46-.66c-7.1-1.27-15.5,3.23-15.76,3.43a.55.55,0,0,0-.12.78.58.58,0,0,0,.79.13c.06-.05,8.29-4.41,14.89-3.23A.48.48,0,0,0,412.61,394.69Z" style="fill: rgb(240, 240, 240); transform-origin: 404.809px 395.698px;" id="eleadtelgwy0o" class="animable"></path><path d="M410.81,390.14a.55.55,0,0,0,.41-.43.57.57,0,0,0-.44-.67c-7.83-1.54-14.85,3.68-15.09,3.88a.57.57,0,0,0-.07.8.56.56,0,0,0,.79.07c.06-.05,6.86-5.07,14.15-3.64A.53.53,0,0,0,410.81,390.14Z" style="fill: rgb(240, 240, 240); transform-origin: 403.36px 391.339px;" id="elidcok0tnfg" class="animable"></path><path d="M409.48,384.46a.55.55,0,0,0,.41-.43.57.57,0,0,0-.43-.67c-7.36-1.55-14.9,3.84-15.17,4.06a.57.57,0,1,0,.71.88c.06-.05,7.39-5.28,14.22-3.83A.57.57,0,0,0,409.48,384.46Z" style="fill: rgb(235, 235, 235); transform-origin: 401.96px 385.778px;" id="elm1wkkin461" class="animable"></path><path d="M345.74,256.9l-5.82,35.25a110.28,110.28,0,0,1,1.27,20.72c-.5,10.18-5.07,39.61-7.29,50.41a22.5,22.5,0,0,1-22.08.52s-2.22-59.36-3.13-73.64,2.06-72,2.75-94.59L381,198.36s2.61,8.18,3.85,26.36,5.8,62.67,5.8,62.67c9.07,18.35,10.54,32.17,14.71,72.59-6.81,9.57-20.44,6.76-20.44,6.76s-16-43.46-19.67-52.91c-2.9-7.39-15.94-46.08-19.53-56.93" style="fill: rgb(69, 90, 100); transform-origin: 356.939px 281.347px;" id="elylb7agst08a" class="animable"></path><path d="M316.78,230.68l-2,27.76c-.12,4.43-1.11,14.14-1.19,18.57s-.22,8.87,0,13.24,2.32,40.33,2,49.22c-1.32-9.86-3.48-40.2-4-49.13-.22-9,.81-19.13,2-32S315.65,239.5,316.78,230.68Z" style="fill: rgb(55, 71, 79); transform-origin: 314.17px 285.075px;" id="elj0ntdiasvhs" class="animable"></path><path d="M356.25,229.08c1.94,10,3.74,20,5.54,30.07s4.86,21,7.24,30.9,16.23,48.28,18.31,58.27c-2.86-9.8-17.82-47.87-20.31-57.8s-5.29-21-6.81-31.1S357.41,239.22,356.25,229.08Z" style="fill: rgb(55, 71, 79); transform-origin: 371.795px 288.7px;" id="elr340vyrymas" class="animable"></path><path d="M337.06,222.36l8.68,34.54-5.82,35.25,2.4-29.49-8.4-35.75s-13.36-2.39-15-12.1C326,223.12,337.06,222.36,337.06,222.36Z" style="fill: rgb(55, 71, 79); transform-origin: 332.33px 253.48px;" id="elceixy5swxns" class="animable"></path></g><g id="freepik--Top--inject-163" class="animable" style="transform-origin: 329.099px 138.563px;"><path d="M257.28,153.17c2.72,2.1,5.55,5.4,10.18,9.14s11.67,10.32,18.4,14.24,10.05,5.51,18.33-3.19c10.51-11.05,20.8-26.51,20.8-26.51l-.37-31.94c-7,2.17-11,6-15.32,12.64-8.11,12.58-13.59,20.7-18.29,28,0,0-19.79-11.46-22.36-13.28a10.51,10.51,0,0,1-4.06-5.6,51.35,51.35,0,0,0-2-5.58c-.81-1.93-1.12-2.67-2.05-5.1s-1.64-6.52-1.94-7.42c-.57-1-2.1-.93-3.39,1.57-.8,1.55-.63,3.59-.56,4.93.08,1.5.54,3.31.09,3.55s-2.58-.84-4.72-1.34-4-1.42-6.38-.71a2.8,2.8,0,0,0-1.93,3.71,3.59,3.59,0,0,0,1.26,1.42,3,3,0,0,0-2.27.71,3.27,3.27,0,0,0,0,4.14,1.85,1.85,0,0,0-1.81,1.63c-.25,1.4-.1,2.79,1.3,3.33,0,0-1.15.28-1.22.95A3.32,3.32,0,0,0,240,145.5c1.17.79,4,.94,4,.94s.21.51,1.55,1.2A33.55,33.55,0,0,0,250,150C251.74,150.73,255.12,151.49,257.28,153.17Z" style="fill: rgb(255, 189, 167); transform-origin: 281.89px 147.308px;" id="els98sppl6izm" class="animable"></path><path d="M324.62,114.76a22.28,22.28,0,0,0-10.41,6.15c-2.93,3-8.16,11.46-11.29,16.17s-6.47,9.67-6.47,9.67-.08,12.12,15.27,18.49l13.79-18Z" style="fill: rgb(65, 217, 189); transform-origin: 310.98px 140px;" id="eloj8xbfj70hr" class="animable"></path><g id="elbso8eck3u05"><path d="M324.62,114.76a22.28,22.28,0,0,0-10.41,6.15c-2.93,3-8.16,11.46-11.29,16.17s-6.47,9.67-6.47,9.67-.08,12.12,15.27,18.49l13.79-18Z" style="opacity: 0.3; transform-origin: 310.98px 140px;" class="animable"></path></g><path d="M247.77,143.17a1.22,1.22,0,0,1-.28,1,10.4,10.4,0,0,1-1,1c-.18.16-.35.32-.54.46a2.18,2.18,0,0,1-.59.3l-1.38.5a5.84,5.84,0,0,0,1.5-.11,2,2,0,0,0,.74-.3,5.41,5.41,0,0,0,.61-.46,5.84,5.84,0,0,0,1-1.16,1.67,1.67,0,0,0,.22-.79,1.2,1.2,0,0,0-.17-.48,6.48,6.48,0,0,0,1.12-.42,3.68,3.68,0,0,0,1.56-1.08,2.73,2.73,0,0,0,.32-.92.81.81,0,0,0,0-.31l.44-.64a8.27,8.27,0,0,0,2,3.36,9.81,9.81,0,0,0,4,2.61,8.69,8.69,0,0,1-3.48-3.35,8.81,8.81,0,0,1-.57-7.19l.11,0a1.36,1.36,0,0,0,.45-.55,1.8,1.8,0,0,0,.05-1.31,3.69,3.69,0,0,0-.59-1.09,7,7,0,0,0-4-2.31,3.2,3.2,0,0,0-.58-.85,5,5,0,0,0-.81-.71,6.75,6.75,0,0,1,.72.79,3.08,3.08,0,0,1,.5.9l0,.05.06,0a7.17,7.17,0,0,1,3.74,2.39,1.94,1.94,0,0,1,.46,1.9c-.18.33-.31.43-.67.37s-.75-.12-1.14-.18c-.78-.11-1.56-.12-2.31-.22a9.28,9.28,0,0,1-2.19-.56c-.7-.28-1.39-.64-2.08-1a16,16,0,0,1-2-1.15,18.36,18.36,0,0,0,3.95,2.48,7.74,7.74,0,0,0,2.27.68c.78.11,1.56.14,2.3.26l.45.08a1.46,1.46,0,0,1,.5.91,1.59,1.59,0,0,1-.79,1.53,10.17,10.17,0,0,1-1.69,1,5.6,5.6,0,0,1-1.83.43,13.56,13.56,0,0,1-3.71-1.15c-1.25-.47-2.5-.93-3.77-1.33,1.19.61,2.4,1.16,3.61,1.71.61.28,1.22.54,1.85.79a4,4,0,0,0,3.27.25,1.86,1.86,0,0,1,1,.66.9.9,0,0,1,.16.74,2.32,2.32,0,0,1-.33.75,3.73,3.73,0,0,1-1.42.88,3.68,3.68,0,0,1-1.62.42,6.32,6.32,0,0,1-1.66-.5,11.51,11.51,0,0,0-1.8-.37c-1.2-.17-2.4-.3-3.61-.37,1.18.28,2.37.51,3.54.76a15.45,15.45,0,0,1,1.72.44,6.89,6.89,0,0,0,1.78.56A2.51,2.51,0,0,0,247.77,143.17Zm4.41-7.93,0,0h0Z" style="fill: rgb(240, 153, 122); transform-origin: 248.72px 137.405px;" id="elguy1hx50ca" class="animable"></path><path d="M291,155.51c-2.59,3.62-2.53,9-2.53,9a11.83,11.83,0,0,1,.93-9.89Z" style="fill: rgb(240, 153, 122); transform-origin: 289.397px 159.565px;" id="el7wbqfge017" class="animable"></path><g id="freepik--Chest--inject-163" class="animable" style="transform-origin: 348.872px 163.102px;"><path id="freepik--chest--inject-163" d="M362.15,111.88c10.87,2.68,14.13,3.82,19.28,5.13,0,0,10.48,10.19,3.3,45.57a151.34,151.34,0,0,0-2.34,26.17,107.2,107.2,0,0,0,1.15,18s-16.16,10.45-46.63,6.8c-23.93-2.86-26.41-12.66-26.41-12.66s.82-26.48,2.17-44.73c1.77-24,9.21-38.2,11.95-41.43.86-.5,17.16-2.81,17.16-2.81Z" style="fill: rgb(224, 224, 224); transform-origin: 348.872px 163.102px;" class="animable"></path></g><path d="M381.43,117c4,.34,10.36,3.27,15.59,12.41,8.36,14.58,13.07,23.8,19.17,36.12,3.66,7.39,4.55,11.43.82,16.75-3.27,4.67-20.47,28.82-24.83,33.68-2.91,3.24-6.77,9.43-9.84,12,0,0-6.6-.92-10.95-12.32,0,0-.4-1.72-4.46.09-2.81,1.26-6.48,1.8-8.37.28s2.11-2.79,4.06-4.25a25,25,0,0,1,9.68-5c5.08-1.32,6.57-1.89,11.11-7.42s12.64-24.15,12.64-24.15L380.25,149C374.47,131.58,375,124.15,381.43,117Z" style="fill: rgb(255, 189, 167); transform-origin: 388.737px 172.48px;" id="elut92jhm3acj" class="animable"></path><path d="M396.05,175.17c2.87-4.54,9.79-5.43,9.79-5.43A13.23,13.23,0,0,0,395,173.39Z" style="fill: rgb(240, 153, 122); transform-origin: 400.42px 172.406px;" id="elvpdhdq6ild" class="animable"></path><path d="M379.38,116.47c3.51.48,8.59.91,13.07,6.11s6.17,8.77,10.16,16,7.75,14.52,7.75,14.52-1.57,3.57-9.68,7.87-11.44,3.75-11.44,3.75-6.78-11-9.86-16S372.31,125.66,379.38,116.47Z" style="fill: rgb(65, 217, 189); transform-origin: 392.898px 140.606px;" id="el17varj7t3hw" class="animable"></path><g id="elhls7c2xz11j"><path d="M379.38,116.47c3.51.48,8.59.91,13.07,6.11s6.17,8.77,10.16,16,7.75,14.52,7.75,14.52-1.57,3.57-9.68,7.87-11.44,3.75-11.44,3.75-6.78-11-9.86-16S372.31,125.66,379.38,116.47Z" style="opacity: 0.3; transform-origin: 392.898px 140.606px;" class="animable"></path></g><g id="freepik--Head--inject-163" class="animable" style="transform-origin: 348.731px 85.5972px;"><path d="M344.35,52.34c11.88-1.72,19.78,3.48,24.15,9.94,4.92.45,7.41,4.57,7.75,9.47,1.15,16.51-12.61,23.14-15.25,31L324.88,71.82C324.63,65.94,328.7,54.61,344.35,52.34Z" style="fill: rgb(38, 50, 56); transform-origin: 350.594px 77.3788px;" id="el1z78ru9neaa" class="animable"></path><path d="M374.75,60.31l-6.65,2.06a3.69,3.69,0,0,0,4.51,2.26A3.3,3.3,0,0,0,374.75,60.31Z" style="fill: rgb(38, 50, 56); transform-origin: 371.53px 62.546px;" id="eldmjt2ec2n04" class="animable"></path><path d="M369.57,55.81l-1.49,6.66a3.66,3.66,0,0,0,4.26-2.68A3.34,3.34,0,0,0,369.57,55.81Z" style="fill: rgb(38, 50, 56); transform-origin: 370.245px 59.1752px;" id="elrscdd4kueh" class="animable"></path><path d="M368.22,61.87c-4.38-6.46-12-11.25-23.87-9.53-15.65,2.27-19.72,13.6-19.47,19.48l7.82,6.69,15.2-10.65C350.27,64,363.38,61,368.22,61.87Z" style="fill: rgb(65, 217, 189); transform-origin: 346.545px 65.2486px;" id="elm9lacs3swgf" class="animable"></path><path d="M347.9,67.87c1.59-1.09,3.8-1.54,6.62.59a8.47,8.47,0,0,1,2.72,4c.65,2.13.64,2.91.78,6.36.09,2.35,1.11,7.87,4.92,6.31,1.12-.46,1.76-1.57,2.75-2.19,3.11-2,7.31-1.07,8.66,2.4a8.79,8.79,0,0,1-4.13,11.05c-5.24,2.36-7-.61-7-.61l-.08,17.69c-3.62,5.69-12.19,9.46-20.42,8.37s-6.11-5.18-3-8.24v-7.21a23.92,23.92,0,0,1-6.79-1c-5-1.7-7.1-6.44-7.87-11.25-.88-5.51-.25-13.35.45-19.05a38.51,38.51,0,0,1,.95-4.64C330.73,65.05,344.55,61.31,347.9,67.87Z" style="fill: rgb(255, 189, 167); transform-origin: 349.8px 93.2036px;" id="el507d3qydrtr" class="animable"></path><path d="M356.6,84.78c.17,1.59-1.56,3.07-3.86,3.32s-4.31-.84-4.48-2.42,1.56-3.06,3.86-3.31S356.43,83.2,356.6,84.78Z" style="fill: rgb(240, 153, 122); transform-origin: 352.43px 85.2349px;" id="elev59syzap9f" class="animable"></path><path d="M330.66,84.72c-.25,1.58-2.31,2.56-4.6,2.19s-3.94-1.93-3.69-3.5,2.31-2.55,4.59-2.19S330.91,83.15,330.66,84.72Z" style="fill: rgb(240, 153, 122); transform-origin: 326.515px 84.0668px;" id="elo8c9wlpw9c" class="animable"></path><polygon points="340.27 77.06 337.65 90.41 331.11 87.33 340.27 77.06" style="fill: rgb(240, 153, 122); transform-origin: 335.69px 83.735px;" id="el88amwi9xgh9" class="animable"></polygon><path d="M345.44,92.48,337,94.89A4.34,4.34,0,0,0,342.37,98,4.49,4.49,0,0,0,345.44,92.48Z" style="fill: rgb(177, 102, 104); transform-origin: 341.303px 95.3195px;" id="el6prxr74ybg8" class="animable"></path><path d="M342.37,98a3.26,3.26,0,0,1-.53.09A3.94,3.94,0,0,1,345.57,94,4.47,4.47,0,0,1,342.37,98Z" style="fill: rgb(242, 143, 143); transform-origin: 343.703px 96.045px;" id="elp03k10xnhlh" class="animable"></path><path d="M332.72,78a5.89,5.89,0,0,0-1.61-.61,4.44,4.44,0,0,0-1.66-.13,5.54,5.54,0,0,0-1.72.44s-.08.14,0,.13c.46,0,.86-.1,1.52-.1.16,0,.35,0,.53,0a2.23,2.23,0,0,0-.92,1.1c-.44,1.13.37,1.53,1.48,1.94s2.12.67,2.56-.46a2.2,2.2,0,0,0-.05-1.71l.37.19a6.87,6.87,0,0,1,.68.39c.06.05.12-.12.09-.17A3.79,3.79,0,0,0,332.72,78Z" style="fill: rgb(38, 50, 56); transform-origin: 330.846px 79.1765px;" id="el1o7iixmkr86" class="animable"></path><path d="M333.08,72.35l-4.68,1.51A2.51,2.51,0,0,1,330,70.74,2.43,2.43,0,0,1,333.08,72.35Z" style="fill: rgb(38, 50, 56); transform-origin: 330.684px 72.2402px;" id="el6tnxsxqiy8" class="animable"></path><path d="M350.74,79.87c.06,0,.05-.11,0-.13a5.33,5.33,0,0,0-1.58-.79,4.92,4.92,0,0,0-1.66-.21,5.7,5.7,0,0,0-1.7.27,3.62,3.62,0,0,0-1.45.77s0,.21.05.18.51-.17.74-.24l.41-.11a2.17,2.17,0,0,0-.41,1.66c.19,1.2,1.23,1.14,2.41,1s2-.4,1.85-1.59a2.3,2.3,0,0,0-.66-1.26c.17,0,.36,0,.52.06C349.91,79.59,350.3,79.74,350.74,79.87Z" style="fill: rgb(38, 50, 56); transform-origin: 347.566px 80.539px;" id="elkuxddz3us1p" class="animable"></path><path d="M347,74l4,2.76a2.49,2.49,0,0,0-.66-3.44A2.42,2.42,0,0,0,347,74Z" style="fill: rgb(38, 50, 56); transform-origin: 349.211px 74.8418px;" id="elswhy0axtxwh" class="animable"></path><path d="M339.7,106.43a45.81,45.81,0,0,0,11-1.47c4.25-1.4,6.14-2.58,8.46-7.26,0,0-.45,4.31-3.45,6.85-5.11,4.31-16,4.25-16,4.25Z" style="fill: rgb(240, 153, 122); transform-origin: 349.43px 103.25px;" id="el3y24i85zkhi" class="animable"></path><path d="M347.9,67.86c.68-1.17-.1-3.45-1.06-4.27a5.51,5.51,0,0,0-4.44-.74c-2.26.67-3,3.07-3.7,5a13.21,13.21,0,0,1-1.82,3.67,6.35,6.35,0,0,1-5.6,2.88,5.84,5.84,0,0,0,1.92-4.84c-2,2-5.72,4.43-8.62,4.76-2,.22-2.94-.76-3.27-2.67-.84-5,1.6-10.82,5.21-14.36a16.13,16.13,0,0,1,1.54-1.33c7.37-5.53,19-7.64,28.36-6.49,5.27.65,12.74,5,11.8,12.42C363.36,61.13,350.16,63.94,347.9,67.86Z" style="fill: rgb(65, 217, 189); transform-origin: 344.722px 61.7864px;" id="elbrxcytq0zbm" class="animable"></path><g id="elbh6pznhitz6"><path d="M347.9,67.86c.68-1.17-.1-3.45-1.06-4.27a5.51,5.51,0,0,0-4.44-.74c-2.26.67-3,3.07-3.7,5a13.21,13.21,0,0,1-1.82,3.67,6.35,6.35,0,0,1-5.6,2.88,5.84,5.84,0,0,0,1.92-4.84c-2,2-5.72,4.43-8.62,4.76-2,.22-2.94-.76-3.27-2.67-.84-5,1.6-10.82,5.21-14.36a16.13,16.13,0,0,1,1.54-1.33c7.37-5.53,19-7.64,28.36-6.49,5.27.65,12.74,5,11.8,12.42C363.36,61.13,350.16,63.94,347.9,67.86Z" style="fill: rgb(255, 255, 255); opacity: 0.3; transform-origin: 344.722px 61.7864px;" class="animable"></path></g></g><path d="M339.79,142.88l-4.46-.59C319.64,150.4,307,169,303.51,173.78c2.05,8.35,12.24,20.61,15.61,20.6.35,0,3.79.6,4.46.6,3.38,0,29.67-23.32,31.77-30.55C350.33,152.64,339.79,142.88,339.79,142.88Z" style="fill: rgb(38, 50, 56); transform-origin: 329.43px 168.635px;" id="elo2k8erwg74" class="animable"></path><path d="M350.89,163.83l4.46.6s5.44-16.75,6.29-21.44a26.78,26.78,0,0,0-4.91-5.51c-4.07-.28-17.07,3-21.4,4.81Z" style="fill: rgb(55, 71, 79); transform-origin: 348.485px 150.947px;" id="ele0xbl0ff89m" class="animable"></path><path d="M335.33,142.29C319.64,150.4,307,169,303.51,173.78c2.05,8.35,12.24,20.61,15.61,20.6s29.67-23.32,31.77-30.55C345.87,152.05,335.33,142.29,335.33,142.29Z" style="fill: rgb(69, 90, 100); transform-origin: 327.2px 168.335px;" id="eljon5hveq8v" class="animable"></path><path d="M315.31,156.57c-6.65,4.93-14,16.1-13.65,17.43s9.21,14.87,11.76,16c.45.19,4.3,1.21,4.37,1.22,3,.47,15.8-11.2,16.89-13.15s-10.08-19.22-14.25-20.41C320.05,157.53,316,156.05,315.31,156.57Z" style="fill: rgb(38, 50, 56); transform-origin: 318.201px 173.847px;" id="elszbmonllkv" class="animable"></path><path d="M315.31,156.57c-6.65,4.93-14,16.1-13.65,17.43s9.21,14.87,11.76,16,16-11.1,17.09-13.1S318.3,154.35,315.31,156.57Z" style="fill: rgb(55, 71, 79); transform-origin: 316.111px 173.238px;" id="elm8b6epc6o3j" class="animable"></path><path d="M322.49,162.47c-10.31,7.81-15.79,14.43-17.64,16.87.23.35.47.71.72,1.07,1.69-2.26,7.16-9,17.65-17C323,163.11,322.73,162.78,322.49,162.47Z" style="fill: rgb(224, 224, 224); transform-origin: 314.035px 171.44px;" id="elcc4mlncl3yd" class="animable"></path><path d="M328.94,144.25c-6.64,4.92-7.92,7.09-7.59,8.43s11.09,17,13.64,18.13c.45.2,4.3,1.21,4.37,1.22,3,.47,8.73-5.31,9.81-7.26s-10.94-18.26-15.11-19.46C333.68,145.2,329.64,143.73,328.94,144.25Z" style="fill: rgb(38, 50, 56); transform-origin: 335.271px 158.098px;" id="el92nwsuql61" class="animable"></path><path d="M328.94,144.25c-6.64,4.92-7.92,7.09-7.59,8.43s11.09,17,13.64,18.13,8.91-5.2,10-7.2S331.94,142,328.94,144.25Z" style="fill: rgb(55, 71, 79); transform-origin: 333.176px 157.507px;" id="elg9jekskkyjd" class="animable"></path><path d="M334.54,147.69c-6.76,5.26-8.93,7.55-10.45,9.47l.71,1.05c1.44-1.84,3.67-4.23,10.58-9.62Q335,148.13,334.54,147.69Z" style="fill: rgb(224, 224, 224); transform-origin: 329.735px 152.95px;" id="elmnirduh8srd" class="animable"></path><path d="M354.61,138.41s4.72-5.74,10.78-12.69c6.73-7.73,9.52-10.49,9.52-10.49l8.78,2s-9,8.73-23.49,26.87Z" style="fill: rgb(38, 50, 56); transform-origin: 369.15px 129.665px;" id="elct82w4kjuus" class="animable"></path></g></g></g><g id="freepik--character-1--inject-163" class="animable" style="transform-origin: 157.589px 241.69px;"><g id="freepik--character--inject-163" class="animable" style="transform-origin: 157.589px 241.69px;"><path d="M188.49,82.26c3.13,2.15,20.71,18.59,20.71,18.59a182.67,182.67,0,0,1-20.38,17.43c-1.77,1.28-5.1,2.67-9.14,4.23-2,.76-5.6,2-7,1.77l14.65,32.79c1.22-4.47,3.56-9.66,11.7-17.25C208.47,131,220.1,120.4,227.93,111c8.22-9.89,8.11-14.69,3.49-18.66-5.68-4.9-12.64-8.6-22.68-14.74-9.76-6-14-9-16.68-10.91a42.73,42.73,0,0,1-5.52-5.31,27.07,27.07,0,0,0-7.74-6,28,28,0,0,0-8.89-2.78,2,2,0,0,0-2.36,1.07,6.34,6.34,0,0,0-3.21-.13,10,10,0,0,0-2.3,1.24c-1.21.69-2.35.4-3.61.05a4.18,4.18,0,0,0-1.87-.27c-1,.21-1.05,1-.81,1.79a5.88,5.88,0,0,0,2.12,2.85A37.71,37.71,0,0,0,163,62c2.58,1.45,6.76,3.75,8.25,6.37.3.53.77,1.73-.32,1.43a25.67,25.67,0,0,0-4.28-1,5.28,5.28,0,0,0-4.13,1.13,1.88,1.88,0,0,0-.64,1.13c-.05.63.34.8.8,1a12.4,12.4,0,0,1,1.41.71c1,.51,1.91,1,2.87,1.53,5.62,2.92,8.06,4.1,14,4.8A20.77,20.77,0,0,1,188.49,82.26Z" style="fill: rgb(255, 168, 167); transform-origin: 195.102px 104.796px;" id="elmf1uywk4thk" class="animable"></path><g id="freepik--bottom--inject-163" class="animable" style="transform-origin: 154.242px 305.713px;"><path d="M183.38,371.43c.3-6.27,3.52-54.75,3.52-54.75l-26,13.56c1.83,28.19,4.06,41.58,4.11,46.44h0a5.59,5.59,0,0,1,.1,1c-.34,5.53,6.07,8.94,11,13a97.82,97.82,0,0,0,13.38,9.51c3.63,2,12.08,1.34,13.17-.87-6-4.94-12.07-9.4-16.22-15.28C184.24,380.9,183.1,377.26,183.38,371.43Z" style="fill: rgb(255, 168, 167); transform-origin: 181.78px 359.033px;" id="ela8np6rxeczh" class="animable"></path><path d="M212.09,407.28c.32,0,.59,3.4-1.25,4.71-2.12,1.51-8.21,3.82-16,2.35s-11.84-4-14.81-6.72-7.12-6.45-10.61-7.42c-3.24-.9-6.72-2.54-7.7-3.57s-.57-5.28-.57-5.28Z" style="fill: rgb(38, 50, 56); transform-origin: 186.693px 403.08px;" id="eljfkeulpnga" class="animable"></path><path d="M164.92,375.18s-.54-.1-.8.88c-.32,1.16-.8,4.56-1.44,6.45-.89,2.64-1.73,8.1-1.44,10.31s5.54,4.09,8.89,5.54a44.24,44.24,0,0,1,10.65,7.35c3.49,3.1,11,6.48,16.12,6.89,7.77.62,12.93-1.05,14.66-3.58,2.13-3.14,1.61-6.48-7.07-11a91.62,91.62,0,0,1-9.29-6.31c-5.1-4.27-6.4-6.11-9-11.65a12,12,0,0,0-1.13-2.47,2.77,2.77,0,0,0-2.88-.95c-1.5.2-6.32.68-7.71,1.2-1.24.46-3,1-3,2.43a4.8,4.8,0,0,0,.24,1.5c.09.3.15.7-.14.86s-.6-.06-.82-.27a23.92,23.92,0,0,1-2.23-2.89,8.36,8.36,0,0,0-1.33-1.46,15.52,15.52,0,0,1-1.47-1A2.86,2.86,0,0,1,164.92,375.18Z" style="fill: rgb(55, 71, 79); transform-origin: 186.897px 393.953px;" id="elfl0tzxdgqa4" class="animable"></path><path d="M205.89,398.78c-11.31,0-16.14,7.67-16.88,11.7a28.07,28.07,0,0,0,7.89,2.12c7.77.62,13.25-1,15-3.56C213.89,406.08,213.69,402.17,205.89,398.78Z" style="fill: rgb(250, 250, 250); transform-origin: 200.985px 405.756px;" id="elf4yc33yy90f" class="animable"></path><path d="M188.14,399.12a.64.64,0,0,1-.34-.14.51.51,0,0,1,0-.74c1.68-1.71,7.23-5.15,11.29-4.46a.53.53,0,0,1,.45.6.54.54,0,0,1-.63.42c-3.8-.63-9,2.8-10.3,4.16A.6.6,0,0,1,188.14,399.12Z" style="fill: rgb(235, 235, 235); transform-origin: 193.593px 396.406px;" id="ell5uc4e1zr8" class="animable"></path><path d="M183.46,396.13a.57.57,0,0,1-.34-.14.51.51,0,0,1,0-.74c1.69-1.71,7.23-5.16,11.29-4.46a.53.53,0,0,1,.46.6.53.53,0,0,1-.64.42c-3.79-.63-9,2.8-10.3,4.16A.55.55,0,0,1,183.46,396.13Z" style="fill: rgb(235, 235, 235); transform-origin: 188.918px 393.416px;" id="eliq09id6y4u" class="animable"></path><path d="M179.17,392.79a.58.58,0,0,1-.34-.15.49.49,0,0,1,0-.73c1.68-1.71,8.48-5.85,12.52-5.16a.52.52,0,1,1-.18,1c-3.79-.64-10.2,3.49-11.53,4.84A.57.57,0,0,1,179.17,392.79Z" style="fill: rgb(235, 235, 235); transform-origin: 185.278px 389.732px;" id="eluu235qv9kpq" class="animable"></path><path d="M175,389.45a.64.64,0,0,1-.33-.14.49.49,0,0,1,0-.73c2.32-2.44,9.4-5.84,13.46-5.15a.53.53,0,0,1,.45.6.54.54,0,0,1-.63.42c-3.66-.62-10.4,2.67-12.46,4.83A.58.58,0,0,1,175,389.45Z" style="fill: rgb(235, 235, 235); transform-origin: 181.546px 386.397px;" id="elucvb6pa83ic" class="animable"></path><path d="M132.49,341.29l-25.39-3.85c-1.24,16-2.07,29.23-2.27,42.62,0,2.71-3.45,22.55-3.22,28.22.35,8.5,11.14,9.6,12.45,4.72s7-27.62,7.37-29.8c2.38-8.57,4.8-18.2,9.75-36.43C131.4,346,132.26,342.06,132.49,341.29Z" style="fill: rgb(255, 168, 167); transform-origin: 117.045px 376.668px;" id="elqqdd9jndhc" class="animable"></path><path d="M118.32,416.61c-.19,5.26-1.76,9.61-4.11,11.69a9.4,9.4,0,0,1-9.18,2.15c-3.49-1-7.55-3.54-8.72-7.74-1.4-5.08-.7-7.92.31-12.44Z" style="fill: rgb(38, 50, 56); transform-origin: 106.922px 420.563px;" id="elgy8h7n07tk" class="animable"></path><path d="M104.83,380.06c-1.46.05-2.18,6.62-3.32,13.18-1.21,7-3.58,9.86-4.65,15.63-1.21,6.58-.76,10.31,1.52,14.43s10.8,8.44,15.34,2.9c3.71-4.53,5.21-9.46,5.19-16.09a139.58,139.58,0,0,1,1.22-16.75c.51-4.95,2.53-9.55,1.3-10.16-.85,2.47-1.75,6.19-2.22,5.22a9.75,9.75,0,0,1,.06-1.87,2.08,2.08,0,0,0-.32-1.62,2.76,2.76,0,0,0-1.58-.75c-1.42-.34-5.77-1.59-7.22-1.78-.72-.09-1.44-.16-2.17-.18a6.05,6.05,0,0,0-1.85.16,1.3,1.3,0,0,0-.82.64,2.39,2.39,0,0,0-.11.75,5.25,5.25,0,0,1-.24,1.36c-.06.19-.21.42-.42.37s-.22-.25-.22-.42c0-.8.17-1.37.25-2.3,0-.43.14-1,.16-1.44S104.78,380.49,104.83,380.06Z" style="fill: rgb(55, 71, 79); transform-origin: 109.014px 404.443px;" id="el1hrdcbpg4mi" class="animable"></path><path d="M96.14,412.68c-.43,4.11-.09,7.69,1.69,10.91,2.27,4.12,10.94,8,16,2.94,2.55-2.51,4-6.49,4.45-9.92C116,412.07,100.37,409.1,96.14,412.68Z" style="fill: rgb(250, 250, 250); transform-origin: 107.126px 420.012px;" id="elbb8dhnimr18" class="animable"></path><path d="M115.17,409.87a.49.49,0,0,1-.17-.06c-.06,0-7.2-3.91-13.8-2.78a.54.54,0,0,1-.63-.41A.52.52,0,0,1,101,406c7-1.2,14.25,2.76,14.5,2.89a.49.49,0,0,1,.23.69A.56.56,0,0,1,115.17,409.87Z" style="fill: rgb(235, 235, 235); transform-origin: 108.176px 407.824px;" id="el51gl52s9whi" class="animable"></path><path d="M101.77,402.11a.55.55,0,0,1-.44-.36.5.5,0,0,1,.37-.63c6.6-1.79,14.22,2.62,14.49,2.77a.48.48,0,0,1,.19.69.55.55,0,0,1-.73.18c-.06,0-7.5-4.34-13.65-2.66A.59.59,0,0,1,101.77,402.11Z" style="fill: rgb(235, 235, 235); transform-origin: 108.883px 402.762px;" id="elp5pi915pj1" class="animable"></path><path d="M102.36,397.47a.53.53,0,0,1-.44-.36.49.49,0,0,1,.35-.63c7.27-2.1,14.51,2.58,14.76,2.74a.49.49,0,0,1,.15.71.57.57,0,0,1-.75.14c-.05,0-7.07-4.57-13.83-2.62A.67.67,0,0,1,102.36,397.47Z" style="fill: rgb(235, 235, 235); transform-origin: 109.584px 398.046px;" id="el606uk33a83n" class="animable"></path><path d="M103,392.25a.52.52,0,0,1-.44-.34.5.5,0,0,1,.35-.64c6.81-2.07,14.57,2.72,14.84,2.89a.49.49,0,0,1,.17.7.55.55,0,0,1-.75.15c-.06,0-7.6-4.7-13.93-2.77A.49.49,0,0,1,103,392.25Z" style="fill: rgb(235, 235, 235); transform-origin: 110.269px 392.925px;" id="elknnftoahgr" class="animable"></path><path d="M130.25,180.57c-.64,2.86-1.18,4-2.28,5.41-6.7,8.56-11.45,16.93-12.68,33-3.05,39.63-2.39,80.78-2.39,80.78-.43,3.49-3.67,9.56-5.84,27.63-1.9,15.82-2.46,37.58-2.46,37.58s17.94,3.31,23.23-1.73c3-11.75,12.36-41.53,17.44-58.61,4.62-15.5,8.26-38.45,8.26-38.45l5.41,32.28a93.08,93.08,0,0,0-.67,20.68c.79,10.68,4.4,38.4,4.4,38.4,3.27,3.7,18.76,3.65,22.82-1.52,0,0,4.56-46.61,5.23-59.45,1.25-23.9,3.81-69.73-2.84-104.88-.27-1.43-.95-7.25-.95-7.25C178.28,191,141.11,188.53,130.25,180.57Z" style="fill: rgb(38, 50, 56); transform-origin: 148.432px 273.303px;" id="elvuvtaxbd0y" class="animable"></path><path d="M145.39,192.51a.47.47,0,0,0-.57.3c-.55,1.83-1,3.47-1.39,5.06-1.49,5.75-2.57,9.9-7.17,14.2A15.32,15.32,0,0,1,125,216c2.43-11.79,6.88-21.08,13.62-28.62a.42.42,0,0,0,0-.62.48.48,0,0,0-.66,0c-6.94,7.75-11.47,17.31-13.92,29.46,0,0,0,0,0,.05s0,0,0,0A112.25,112.25,0,0,0,122.13,231c-1.42,22.3-3.56,56-4.3,64.85-.39,4.73-1.65,8.8-3.23,13.95-1.37,4.44-2.92,9.47-4.4,16.39-3.21,15-3,39.79-3,40a.45.45,0,0,0,.44.44h0a.45.45,0,0,0,.46-.44c0-.25-.17-25,3-39.86,1.48-6.88,3-11.89,4.39-16.32,1.6-5.2,2.86-9.3,3.26-14.13.74-8.85,2.88-42.55,4.3-64.86a111.18,111.18,0,0,1,1.78-14.23l.49,0a16.07,16.07,0,0,0,11.59-4.16c4.78-4.48,5.89-8.73,7.42-14.61.41-1.59.84-3.22,1.37-5A.44.44,0,0,0,145.39,192.51Z" style="fill: rgb(69, 90, 100); transform-origin: 126.453px 276.629px;" id="elcp75j73jiza" class="animable"></path><path d="M104.74,360c3.25,3.35,17.77,5.73,23.09,3.17l-2.59,8.58s-3.83,1.71-11.35.69c-8.72-1.19-9.53-4-9.53-4Z" style="fill: rgb(69, 90, 100); transform-origin: 116.095px 366.382px;" id="elk69v246xs8" class="animable"></path><path d="M162.67,357.49c4.44,1.69,17.78,1.3,22.82-1.52l-.47,7.15s-3.53,2.51-11.1,3-10.54-1.73-10.54-1.73Z" style="fill: rgb(69, 90, 100); transform-origin: 174.08px 361.08px;" id="elg8zr14h6d2d" class="animable"></path><path d="M153.53,266.13l6.69-39a24.8,24.8,0,0,0,20.22-8.64s-.11,9.81-16.42,13.58L156.49,268l2.45,30.45Z" id="elc1bapwgci29" class="animable" style="transform-origin: 166.985px 258.47px;"></path></g><g id="freepik--top--inject-163" class="animable" style="transform-origin: 154.949px 138.561px;"><path d="M187.24,166.74c.32,3-.69,15.11-.69,15.11l3.37,24c-33.9,20.36-72.52,1.46-72.52,1.46,2.63-12.31,9.44-21.77,10.09-30.39l-7.26-19.74A74.43,74.43,0,0,1,123.64,128l14.8-3.58,26.29-.57,7.93.43a115.52,115.52,0,0,1,16.47,18.25C194.7,150.62,192.87,160.2,187.24,166.74Z" style="fill: rgb(69, 90, 100); transform-origin: 154.949px 169.572px;" id="elwfmkwk75tsq" class="animable"></path><g id="freepik--head--inject-163" class="animable" style="transform-origin: 152.393px 99.1589px;"><path id="freepik--Hair--inject-163" d="M172.16,118.76c-4.5,2.63-11.38,2.77-14.51,1.81a69.33,69.33,0,0,1-13.73-.45s-6.78,1.47-11.4-.47S128,112,128,112s-2.87,3.51.59,6.33c-6.33,1.53-9.31-5.06-8-9.54,1.74-6.1,4.8-7.67,3.9-15s-1.17-14,5.44-16.75a32.67,32.67,0,0,0,1.1-3.37,16.24,16.24,0,0,1,2-3.22,20.69,20.69,0,0,1,6.28-5.14c5.4-2.94,11.61-3.32,17.62-3.47,7.42-.18,15.66,1.82,20.21,8.17a9.79,9.79,0,0,1,1.47,8.65c-.82,2.34-2.6,4.43-3,6.9-.61,3.46,3,6.42,5,8.7,3.17,3.52,7.14,11.64-.57,18.74,1.15-2.55.2-7.4-1.51-8.85C179.58,108.2,179.6,114.4,172.16,118.76Z" style="fill: rgb(65, 217, 189); transform-origin: 152.393px 91.4717px;" class="animable"></path><g id="freepik--hair--inject-163"><path d="M172.16,118.76c-4.5,2.63-11.38,2.77-14.51,1.81a69.33,69.33,0,0,1-13.73-.45s-6.78,1.47-11.4-.47S128,112,128,112s-2.87,3.51.59,6.33c-6.33,1.53-9.31-5.06-8-9.54,1.74-6.1,4.8-7.67,3.9-15s-1.17-14,5.44-16.75a32.67,32.67,0,0,0,1.1-3.37,16.24,16.24,0,0,1,2-3.22,20.69,20.69,0,0,1,6.28-5.14c5.4-2.94,11.61-3.32,17.62-3.47,7.42-.18,15.66,1.82,20.21,8.17a9.79,9.79,0,0,1,1.47,8.65c-.82,2.34-2.6,4.43-3,6.9-.61,3.46,3,6.42,5,8.7,3.17,3.52,7.14,11.64-.57,18.74,1.15-2.55.2-7.4-1.51-8.85C179.58,108.2,179.6,114.4,172.16,118.76Z" style="opacity: 0.2; transform-origin: 152.393px 91.4717px;" class="animable"></path></g><g id="freepik--head--inject-163" class="animable" style="transform-origin: 152.511px 105.999px;"><path d="M140.15,119.32c-.49-6.17-.9-10-.9-10-.66,1.27-4.33,2.49-8.56-1A8.66,8.66,0,0,1,129.05,97c2.42-3.25,6.52-3.19,9.33.87,2.81.23,4.53-3,3.18-8.51-.4-3,.7-9.39,4-11.61,3.72-2.49,9.46.35,11.23.56a8.55,8.55,0,0,0,6.59-2c1.81-1.26,5.15-1.33,7.2,2,1.56,2.85,3.34,6.9,4.11,15.46,1,11.06-.51,16.72-4.46,19.79-2,1.53-4.19,2.4-8.52,2.78,0,0,.13,1.54.29,4.55a3,3,0,0,0,2.72,2.92c2.29,2.24,8.58,10.91-2.66,12.43-15.89,2.14-22.57-10.18-24.23-11.74C140.79,123.7,140.32,121.48,140.15,119.32Z" style="fill: rgb(255, 168, 167); transform-origin: 151.318px 105.999px;" id="eledxr91bn9uu" class="animable"></path><path d="M127.21,96.52a1.55,1.55,0,0,1,.73-.94,2.43,2.43,0,0,1,1.26-.39,2.39,2.39,0,0,1,1.51.48,1.65,1.65,0,0,1,.72,1.28,1,1,0,0,1-.28.74c-.24.21-.46,0-.56-.27a2,2,0,0,0-.82-1,1.27,1.27,0,0,0-1.86,1,.54.54,0,0,1-.09.31.3.3,0,0,1-.16.08c-.62.09-.55-.81-.46-1.16Z" style="fill: rgb(38, 50, 56); transform-origin: 129.286px 96.5026px;" id="el5k86epfpzex" class="animable"></path><path d="M126.53,98.66a1.51,1.51,0,0,1,.73-.93,2.35,2.35,0,0,1,1.26-.4,2.45,2.45,0,0,1,1.52.49,1.63,1.63,0,0,1,.71,1.27,1,1,0,0,1-.28.74c-.24.21-.46,0-.55-.26a2,2,0,0,0-.82-1,1.28,1.28,0,0,0-1.19,0,1.26,1.26,0,0,0-.68,1,.5.5,0,0,1-.09.32.29.29,0,0,1-.16.07c-.61.1-.55-.81-.46-1.16Z" style="fill: rgb(38, 50, 56); transform-origin: 128.607px 98.6486px;" id="el4wxdwavme2i" class="animable"></path><path d="M161.72,116.38c-7.78.55-14.68-1.22-18.64-6.19,0,0,1.1,3.94,4.31,5.68,8,4.32,14.49,2.85,14.49,2.85Z" style="fill: rgb(242, 143, 143); transform-origin: 152.48px 114.576px;" id="el1c4ukiq7e0z" class="animable"></path><path d="M162.76,105.45,155,103.86a3.74,3.74,0,0,0,2.9,4.63A4.17,4.17,0,0,0,162.76,105.45Z" style="fill: rgb(177, 102, 104); transform-origin: 158.817px 106.216px;" id="elkhj3x4sy8ta" class="animable"></path><path d="M159.63,108.47a4.06,4.06,0,0,1-1.7,0,3.73,3.73,0,0,1-2.9-2.77A4.55,4.55,0,0,1,159.63,108.47Z" style="fill: rgb(242, 143, 143); transform-origin: 157.33px 107.121px;" id="elvzhrf66i8l" class="animable"></path><polygon points="158.91 88.43 162.19 102.47 168.55 98.78 158.91 88.43" style="fill: rgb(242, 143, 143); transform-origin: 163.73px 95.45px;" id="elfgu15xia24r" class="animable"></polygon><path d="M148.88,91.29c0,.61,1.17,1.14,2,.79a2.61,2.61,0,0,1,1.7-1.29,2.34,2.34,0,0,1,3,1.4c.3,1.17-1.32-.11-2.67.27s-1.95,2.3-2.21,1.12a2.58,2.58,0,0,1,0-.38C149.36,93.28,148.43,92.24,148.88,91.29Z" style="fill: rgb(38, 50, 56); transform-origin: 152.191px 92.3037px;" id="elfh7vvmcsj1v" class="animable"></path><path d="M171.23,88.24c.13.61-.8,1.43-1.69,1.32a2.59,2.59,0,0,0-2-.76A2.34,2.34,0,0,0,165,91c0,1.21,1.24-.48,2.64-.49s2.52,1.66,2.44.45c0-.13,0-.25-.06-.37C171.32,90.29,171.92,89,171.23,88.24Z" style="fill: rgb(38, 50, 56); transform-origin: 168.26px 89.8381px;" id="elnbkok5gas77" class="animable"></path><path d="M170.67,85.56l-5.14-.84a2.51,2.51,0,0,1,2.91-2.17A2.72,2.72,0,0,1,170.67,85.56Z" style="fill: rgb(38, 50, 56); transform-origin: 168.11px 84.0374px;" id="elfabuk92487w" class="animable"></path><path d="M148.09,89.23l4.49-2.79a2.55,2.55,0,0,0-3.57-.89A2.74,2.74,0,0,0,148.09,89.23Z" style="fill: rgb(38, 50, 56); transform-origin: 150.154px 87.1942px;" id="elw2gaqcf6lpj" class="animable"></path><path d="M150.56,97.71c.11,1.83-1.82,3.44-4.32,3.59s-4.61-1.2-4.73-3,1.82-3.44,4.32-3.6S150.44,95.88,150.56,97.71Z" style="fill: rgb(242, 143, 143); transform-origin: 146.035px 97.9992px;" id="el02jomndam5od" class="animable"></path><path d="M178.39,93.12c.66,1.71-.69,3.83-3,4.73s-4.76.26-5.42-1.45.69-3.83,3-4.74S177.72,91.41,178.39,93.12Z" style="fill: rgb(242, 143, 143); transform-origin: 174.18px 94.7539px;" id="el9miju4s1m44" class="animable"></path></g></g></g><g id="freepik--waist-bag--inject-163" class="animable" style="transform-origin: 159.205px 202.865px;"><path d="M156.83,192.79c7.23-1.16,23.33-5.08,27.79-5.78a6.21,6.21,0,0,1,4.93,1.15c.63.52,3.41,3.28,4,3.72a3.55,3.55,0,0,1,1.49,2.66c0,6.86.16,9.72-.23,12.93-.27,2.19-.78,4.08-4.73,5.54s-20.94,5.09-26,5.94c-4.73.81-9.78,1.05-11.79-.71-.52-.45-3.5-3.26-4.12-3.8a2.57,2.57,0,0,1-.9-2.13c.12-3.48.08-11,.09-13.51C147.38,195.65,149.2,194,156.83,192.79Z" style="fill: rgb(65, 217, 189); transform-origin: 171.168px 203.232px;" id="eloi64od03kn" class="animable"></path><g id="elsxw7ljichnn"><path d="M156.83,192.79c7.23-1.16,23.33-5.08,27.79-5.78a6.21,6.21,0,0,1,4.93,1.15c.63.52,3.41,3.28,4,3.72a3.55,3.55,0,0,1,1.49,2.66c0,6.86.16,9.72-.23,12.93-.27,2.19-.78,4.08-4.73,5.54s-20.94,5.09-26,5.94c-4.73.81-9.78,1.05-11.79-.71-.52-.45-3.5-3.26-4.12-3.8a2.57,2.57,0,0,1-.9-2.13c.12-3.48.08-11,.09-13.51C147.38,195.65,149.2,194,156.83,192.79Z" style="opacity: 0.3; transform-origin: 171.168px 203.232px;" class="animable"></path></g><path d="M152.23,199.93,148,196.24a82.14,82.14,0,0,1-11.46,0c-4.36-.48-4.36,5.12-3,7.21s13.65,12.28,17.74,13.89Z" style="fill: rgb(65, 217, 189); transform-origin: 142.485px 206.775px;" id="elhn9d79uafy" class="animable"></path><g id="elvzmcf73p8rh"><path d="M152.23,199.93,148,196.24c1.06-1.58,3.56-2.61,8.79-3.45,7.23-1.16,23.33-5.08,27.79-5.78a6.21,6.21,0,0,1,4.93,1.15c.63.52,3.41,3.28,4,3.72a3.77,3.77,0,0,1,1.38,2Z" style="opacity: 0.4; transform-origin: 171.445px 193.414px;" class="animable"></path></g><path d="M195,194.54c0,6.86.16,9.72-.23,12.93-.27,2.19-.78,4.08-4.73,5.54s-20.94,5.09-26,5.94c-6.15,1.05-12.84,1.15-12.71-2.83.12-3.48.08-11,.09-13.52,0-3.15,1.83-4.78,9.45-6,7.23-1.16,23.33-5.09,27.8-5.78C192.49,190.23,195,192.49,195,194.54Z" style="fill: rgb(65, 217, 189); transform-origin: 173.18px 205.147px;" id="elum6exvs5dxm" class="animable"></path><g id="el8wovd81cbvg"><path d="M195,194.54c0,6.86.16,9.72-.23,12.93-.27,2.19-.78,4.08-4.73,5.54s-20.94,5.09-26,5.94c-6.15,1.05-12.84,1.15-12.71-2.83.12-3.48.08-11,.09-13.52,0-3.15,1.83-4.78,9.45-6,7.23-1.16,23.33-5.09,27.8-5.78C192.49,190.23,195,192.49,195,194.54Z" style="opacity: 0.18; transform-origin: 173.18px 205.147px;" class="animable"></path></g><path d="M148,196.24c.87-1.57,4.92,1.52,5.56,4.08a30,30,0,0,1,.63,5,1.75,1.75,0,0,0,2,1.44c7.95-1.39,38.31-6.75,39.29-7.43.52-.36.38-6.16-.95-7.57s-5-5-7.18-5.21-26.27,4.84-31,5.6S148,194,148,196.24Z" style="fill: rgb(65, 217, 189); transform-origin: 171.88px 196.663px;" id="el0s23shtmi2b" class="animable"></path><polygon points="172.44 208.19 180.26 206.71 179.96 210.3 172.15 211.78 172.44 208.19" style="fill: rgb(65, 217, 189); transform-origin: 176.205px 209.245px;" id="elruqepz7gpub" class="animable"></polygon><path d="M180.61,210.92l-9.23,1.75.42-5.1,9.23-1.75Zm-8.46.86L180,210.3l.3-3.59-7.82,1.48Z" style="fill: rgb(55, 71, 79); transform-origin: 176.205px 209.245px;" id="elvae8phbhw4" class="animable"></path><polygon points="155.63 206.61 194.11 199.32 194.03 200.29 155.55 207.58 155.63 206.61" style="fill: rgb(250, 250, 250); transform-origin: 174.83px 203.45px;" id="elnjwnyjla5e" class="animable"></polygon><path d="M156.19,212.48l-.78.14c-.64.12-1.07-.39-.91-1.08l1.13-4.93,1.33-.25.35,4.65A1.48,1.48,0,0,1,156.19,212.48Z" style="fill: rgb(38, 50, 56); transform-origin: 155.888px 209.499px;" id="elrxcjhuqtk1h" class="animable"></path><path d="M135.86,197.36l-1.13,6.29s-9.31-5.05-12.08-12l2.4-5.49A45.8,45.8,0,0,0,135.86,197.36Z" style="fill: rgb(38, 50, 56); transform-origin: 129.255px 194.905px;" id="el49yykadvjs1" class="animable"></path></g><g id="freepik--Arm--inject-163" class="animable" style="transform-origin: 105.502px 179.879px;"><path d="M111.21,230.6c-1.43-1.56-3.27-2.93-3.86-5a3.64,3.64,0,0,1,.51-3.22,1.61,1.61,0,0,0,.39-.58,1.42,1.42,0,0,0,0-.58,3.92,3.92,0,0,1,.16-2.4,2.42,2.42,0,0,1,1.53-1.3,5.78,5.78,0,0,1,0-3.63c.47-1.38,1.89-2.48,2.83-.93a13,13,0,0,1,1.07,2.41,28.17,28.17,0,0,1,1.38,6.42c.23,2.28.77,8.73-2.76,9C112.19,230.8,111.41,230.82,111.21,230.6Z" style="fill: rgb(242, 143, 143); transform-origin: 111.286px 221.5px;" id="elkzph3ln9rlc" class="animable"></path><path d="M127.38,127.1c-13.59,2.56-14.78,6.12-22.87,17.27-8,11-19.14,25.85-21.67,31.28-3.12,6.71-3.79,9.29,3.4,16.44,3.7,3.69,8.87,8.08,14.13,13,4.15,3.91,9.14,8.06,13.16,12.12a3.66,3.66,0,0,1,1.25,3.7,26.12,26.12,0,0,0-.72,2.73,24.51,24.51,0,0,0,.29,3.61,3.13,3.13,0,0,1-1.42,3.1,3.46,3.46,0,0,1-1.72.21,12.56,12.56,0,0,0,3.31,1.81,5.1,5.1,0,0,0,3.71-.13c1.1-.53,1.93-1.58,3.11-1.93.63-.19,1.32-.16,2-.33a3.21,3.21,0,0,0,1.68-1.1c.67-.84,1-2.06,1.89-2.57a12.62,12.62,0,0,1,1.47-.48,3.31,3.31,0,0,0,1.83-2.43,9,9,0,0,0-.08-3.15,78.66,78.66,0,0,0-1.71-8.32,8.18,8.18,0,0,0-1.35-2.56c-.63-.92-1.24-1.86-1.93-2.74-4.67-5.95-19.47-25.79-19.47-25.79l17.27-21.67S136.18,146.47,127.38,127.1Z" style="fill: rgb(255, 168, 167); transform-origin: 105.502px 179.879px;" id="eltnnzpi7yb3f" class="animable"></path><path d="M105.63,180.88c-4.13,4-10.54,4.37-12.9,4.22A13.53,13.53,0,0,0,107,182.67Z" style="fill: rgb(242, 143, 143); transform-origin: 99.865px 183.513px;" id="elg27df4mjsju" class="animable"></path></g></g></g><g id="freepik--speech-bubble--inject-163" class="animable animator-active" style="transform-origin: 272.002px 66.6559px;"><g id="freepik--speech-bubble--inject-163" class="animable" style="transform-origin: 272.002px 66.6559px;"><g id="freepik--speech-bubble--inject-163" class="animable" style="transform-origin: 272.002px 66.6559px;"><path d="M291.16,47.45a27,27,0,0,1,7.94,18.26L299,68.8a27.08,27.08,0,0,1-54,.09l-.08-3.1a27.08,27.08,0,0,1,46.21-18.34Z" style="fill: rgb(255, 255, 255); transform-origin: 272.01px 66.6851px;" id="eli9tizajk7r" class="animable"></path><path d="M251.2,45.88a29.4,29.4,0,0,0,37.89,44.7l8.37,3.67A1.71,1.71,0,0,0,299.71,92L296,83.64a29.4,29.4,0,0,0-44.8-37.76Zm40,1.57a27.07,27.07,0,0,1,7.94,18.26l-.08,3.1a27.08,27.08,0,0,1-54,.08l-.08-3.1a27.08,27.08,0,0,1,46.21-18.34Z" style="fill: rgb(69, 90, 100); transform-origin: 272.002px 66.6559px;" id="elig46g1fhes9" class="animable"></path><g id="elrrt4el06tvc"><path d="M291.16,47.45a27.07,27.07,0,0,1,7.94,18.26l-.08,3.1a27.08,27.08,0,0,1-54,.08l-.08-3.1a27.08,27.08,0,0,1,46.21-18.34Z" style="fill: rgb(255, 255, 255); opacity: 0.7; transform-origin: 272.02px 66.6875px;" class="animable"></path></g></g><g id="freepik--Check--inject-163" class="animable" style="transform-origin: 272.409px 66.7607px;"><path d="M268.59,81.08a3.92,3.92,0,0,1-2.85-1.24L256.9,70.4a3.9,3.9,0,1,1,5.69-5.34l5.75,6.14L281.94,54a3.9,3.9,0,1,1,6.12,4.83l-16.4,20.78a3.92,3.92,0,0,1-2.9,1.49Z" style="fill: rgb(65, 217, 189); transform-origin: 272.409px 66.7607px;" id="elwenuvadf8lr" class="animable"></path></g></g></g><defs>     <filter id="active" height="200%">         <feMorphology in="SourceAlpha" result="DILATED" operator="dilate" radius="2"></feMorphology>                <feFlood flood-color="#32DFEC" flood-opacity="1" result="PINK"></feFlood>        <feComposite in="PINK" in2="DILATED" operator="in" result="OUTLINE"></feComposite>        <feMerge>            <feMergeNode in="OUTLINE"></feMergeNode>            <feMergeNode in="SourceGraphic"></feMergeNode>        </feMerge>    </filter>    <filter id="hover" height="200%">        <feMorphology in="SourceAlpha" result="DILATED" operator="dilate" radius="2"></feMorphology>                <feFlood flood-color="#ff0000" flood-opacity="0.5" result="PINK"></feFlood>        <feComposite in="PINK" in2="DILATED" operator="in" result="OUTLINE"></feComposite>        <feMerge>            <feMergeNode in="OUTLINE"></feMergeNode>            <feMergeNode in="SourceGraphic"></feMergeNode>        </feMerge>            <feColorMatrix type="matrix" values="0   0   0   0   0                0   1   0   0   0                0   0   0   0   0                0   0   0   1   0 "></feColorMatrix>    </filter></defs></svg>